<svg xmlns="http://www.w3.org/2000/svg" xmlns:xlink="http://www.w3.org/1999/xlink" width="500" zoomAndPan="magnify" viewBox="0 0 375 374.999991" height="500" preserveAspectRatio="xMidYMid meet" version="1.0"><defs><clipPath id="84ad9985ee"><path d="M 22.929688 67.210938 L 351.972656 67.210938 L 351.972656 307.960938 L 22.929688 307.960938 Z M 22.929688 67.210938 " clip-rule="nonzero"/></clipPath></defs><g clip-path="url(#84ad9985ee)"><path fill="#000000" d="M 322.339844 119.191406 L 264.425781 119.191406 L 244.175781 81.695312 C 243.617188 80.65625 242.988281 79.664062 242.296875 78.710938 C 241.601562 77.761719 240.851562 76.859375 240.035156 76.007812 C 239.222656 75.15625 238.355469 74.363281 237.4375 73.628906 C 236.515625 72.894531 235.550781 72.226562 234.542969 71.621094 C 233.535156 71.015625 232.488281 70.480469 231.410156 70.015625 C 230.328125 69.550781 229.21875 69.160156 228.085938 68.84375 C 226.953125 68.527344 225.804688 68.289062 224.640625 68.128906 C 223.476562 67.964844 222.304688 67.882812 221.128906 67.875 L 153.894531 67.875 C 152.699219 67.878906 151.507812 67.960938 150.324219 68.125 C 149.140625 68.289062 147.96875 68.535156 146.820312 68.859375 C 145.667969 69.183594 144.542969 69.582031 143.445312 70.058594 C 142.347656 70.539062 141.289062 71.085938 140.265625 71.710938 C 139.242188 72.332031 138.265625 73.019531 137.339844 73.773438 C 136.410156 74.53125 135.535156 75.34375 134.71875 76.21875 C 133.898438 77.09375 133.144531 78.019531 132.453125 78.996094 C 131.761719 79.972656 131.136719 80.996094 130.585938 82.058594 L 111.292969 119.191406 L 98.449219 119.191406 C 98.429688 118.660156 98.359375 118.136719 98.238281 117.621094 C 98.117188 117.105469 97.945312 116.605469 97.730469 116.125 C 97.511719 115.640625 97.25 115.183594 96.945312 114.75 C 96.640625 114.316406 96.296875 113.917969 95.917969 113.550781 C 95.535156 113.183594 95.121094 112.855469 94.675781 112.566406 C 94.234375 112.28125 93.765625 112.039062 93.273438 111.839844 C 92.785156 111.640625 92.277344 111.492188 91.757812 111.394531 C 91.238281 111.292969 90.714844 111.242188 90.1875 111.242188 L 85.742188 111.242188 C 85.558594 110.789062 85.316406 110.371094 85.007812 109.992188 C 84.703125 109.609375 84.347656 109.28125 83.941406 109.007812 C 83.535156 108.734375 83.097656 108.527344 82.632812 108.386719 C 82.164062 108.242188 81.6875 108.171875 81.199219 108.175781 L 69.113281 108.175781 C 68.625 108.175781 68.148438 108.246094 67.683594 108.390625 C 67.214844 108.535156 66.78125 108.742188 66.375 109.015625 C 65.96875 109.289062 65.613281 109.613281 65.308594 109.992188 C 65 110.375 64.753906 110.789062 64.570312 111.242188 L 60.257812 111.242188 C 59.730469 111.242188 59.207031 111.292969 58.6875 111.394531 C 58.167969 111.492188 57.664062 111.644531 57.175781 111.839844 C 56.683594 112.039062 56.21875 112.28125 55.773438 112.570312 C 55.332031 112.855469 54.917969 113.183594 54.539062 113.550781 C 54.160156 113.917969 53.816406 114.320312 53.515625 114.753906 C 53.210938 115.183594 52.949219 115.644531 52.734375 116.125 C 52.519531 116.609375 52.351562 117.109375 52.234375 117.625 C 52.113281 118.140625 52.046875 118.660156 52.027344 119.191406 C 51.0625 119.203125 50.101562 119.257812 49.144531 119.363281 C 48.1875 119.46875 47.234375 119.621094 46.292969 119.816406 C 45.347656 120.015625 44.417969 120.257812 43.496094 120.546875 C 42.578125 120.835938 41.675781 121.167969 40.789062 121.542969 C 39.898438 121.921875 39.035156 122.339844 38.1875 122.800781 C 37.339844 123.261719 36.519531 123.765625 35.722656 124.304688 C 34.921875 124.847656 34.15625 125.425781 33.414062 126.042969 C 32.671875 126.660156 31.960938 127.3125 31.285156 128 C 30.609375 128.6875 29.964844 129.402344 29.355469 130.152344 C 28.75 130.902344 28.179688 131.679688 27.648438 132.484375 C 27.117188 133.289062 26.625 134.117188 26.171875 134.96875 C 25.722656 135.824219 25.3125 136.695312 24.945312 137.589844 C 24.582031 138.480469 24.257812 139.390625 23.980469 140.3125 C 23.703125 141.238281 23.46875 142.175781 23.285156 143.121094 C 23.097656 144.066406 22.957031 145.023438 22.863281 145.980469 C 22.769531 146.941406 22.722656 147.90625 22.722656 148.871094 L 22.722656 277.75 C 22.722656 278.722656 22.769531 279.691406 22.867188 280.660156 C 22.960938 281.628906 23.101562 282.585938 23.292969 283.539062 C 23.480469 284.496094 23.71875 285.4375 24 286.367188 C 24.28125 287.296875 24.605469 288.210938 24.976562 289.109375 C 25.351562 290.007812 25.765625 290.882812 26.222656 291.742188 C 26.679688 292.597656 27.175781 293.433594 27.71875 294.238281 C 28.257812 295.046875 28.832031 295.828125 29.449219 296.578125 C 30.066406 297.332031 30.714844 298.050781 31.402344 298.738281 C 32.089844 299.425781 32.804688 300.078125 33.558594 300.695312 C 34.308594 301.3125 35.085938 301.890625 35.890625 302.429688 C 36.699219 302.96875 37.53125 303.46875 38.386719 303.925781 C 39.242188 304.382812 40.117188 304.800781 41.015625 305.171875 C 41.910156 305.542969 42.824219 305.871094 43.753906 306.152344 C 44.683594 306.433594 45.621094 306.671875 46.574219 306.859375 C 47.527344 307.050781 48.484375 307.191406 49.449219 307.289062 C 50.417969 307.382812 51.386719 307.429688 52.355469 307.429688 L 322.339844 307.429688 C 323.3125 307.429688 324.277344 307.382812 325.246094 307.289062 C 326.210938 307.191406 327.167969 307.050781 328.121094 306.859375 C 329.074219 306.671875 330.011719 306.433594 330.941406 306.152344 C 331.871094 305.871094 332.785156 305.542969 333.679688 305.171875 C 334.578125 304.800781 335.453125 304.382812 336.308594 303.925781 C 337.164062 303.46875 337.996094 302.96875 338.804688 302.429688 C 339.609375 301.890625 340.390625 301.3125 341.140625 300.695312 C 341.890625 300.078125 342.609375 299.425781 343.292969 298.738281 C 343.980469 298.050781 344.632812 297.332031 345.246094 296.578125 C 345.863281 295.828125 346.441406 295.046875 346.980469 294.238281 C 347.519531 293.433594 348.015625 292.597656 348.472656 291.742188 C 348.929688 290.882812 349.347656 290.007812 349.71875 289.109375 C 350.089844 288.210938 350.414062 287.296875 350.695312 286.367188 C 350.980469 285.4375 351.214844 284.496094 351.402344 283.539062 C 351.59375 282.585938 351.734375 281.628906 351.832031 280.660156 C 351.925781 279.691406 351.972656 278.722656 351.972656 277.75 L 351.972656 148.707031 C 351.96875 147.738281 351.914062 146.773438 351.816406 145.808594 C 351.714844 144.84375 351.570312 143.886719 351.375 142.9375 C 351.183594 141.988281 350.941406 141.054688 350.660156 140.128906 C 350.375 139.203125 350.042969 138.292969 349.671875 137.398438 C 349.296875 136.503906 348.878906 135.632812 348.421875 134.78125 C 347.960938 133.925781 347.460938 133.097656 346.921875 132.296875 C 346.382812 131.492188 345.804688 130.71875 345.1875 129.96875 C 344.574219 129.222656 343.921875 128.507812 343.234375 127.824219 C 342.550781 127.140625 341.832031 126.496094 341.082031 125.882812 C 340.335938 125.269531 339.558594 124.695312 338.753906 124.160156 C 337.945312 123.621094 337.117188 123.125 336.265625 122.671875 C 335.410156 122.214844 334.535156 121.804688 333.640625 121.433594 C 332.75 121.066406 331.839844 120.738281 330.914062 120.460938 C 329.988281 120.179688 329.050781 119.945312 328.101562 119.757812 C 327.152344 119.570312 326.195312 119.425781 325.234375 119.332031 C 324.273438 119.238281 323.308594 119.191406 322.339844 119.191406 Z M 187.347656 284.082031 C 186.03125 284.082031 184.714844 284.050781 183.398438 283.988281 C 182.082031 283.921875 180.769531 283.824219 179.457031 283.699219 C 178.144531 283.570312 176.835938 283.40625 175.535156 283.214844 C 174.230469 283.019531 172.933594 282.796875 171.640625 282.539062 C 170.347656 282.28125 169.0625 281.992188 167.785156 281.671875 C 166.507812 281.351562 165.238281 281.003906 163.976562 280.621094 C 162.714844 280.238281 161.464844 279.824219 160.222656 279.378906 C 158.984375 278.933594 157.753906 278.460938 156.535156 277.957031 C 155.320312 277.453125 154.113281 276.917969 152.921875 276.355469 C 151.730469 275.789062 150.554688 275.195312 149.394531 274.574219 C 148.230469 273.953125 147.085938 273.304688 145.953125 272.625 C 144.824219 271.949219 143.710938 271.242188 142.613281 270.507812 C 141.519531 269.777344 140.441406 269.015625 139.382812 268.230469 C 138.324219 267.445312 137.285156 266.632812 136.265625 265.796875 C 135.25 264.960938 134.25 264.097656 133.273438 263.214844 C 132.296875 262.328125 131.34375 261.417969 130.410156 260.484375 C 129.480469 259.550781 128.570312 258.597656 127.683594 257.621094 C 126.800781 256.640625 125.941406 255.644531 125.101562 254.625 C 124.265625 253.605469 123.457031 252.5625 122.671875 251.503906 C 121.886719 250.445312 121.128906 249.367188 120.394531 248.269531 C 119.664062 247.171875 118.957031 246.058594 118.28125 244.925781 C 117.601562 243.792969 116.953125 242.644531 116.332031 241.480469 C 115.710938 240.320312 115.117188 239.140625 114.554688 237.949219 C 113.988281 236.753906 113.457031 235.546875 112.949219 234.328125 C 112.445312 233.109375 111.972656 231.878906 111.527344 230.636719 C 111.082031 229.394531 110.667969 228.140625 110.285156 226.878906 C 109.902344 225.617188 109.550781 224.34375 109.230469 223.066406 C 108.910156 221.785156 108.621094 220.496094 108.363281 219.203125 C 108.105469 217.910156 107.882812 216.609375 107.6875 215.304688 C 107.496094 214 107.332031 212.691406 107.203125 211.375 C 107.074219 210.0625 106.976562 208.746094 106.910156 207.429688 C 106.847656 206.109375 106.8125 204.792969 106.8125 203.472656 C 106.8125 202.152344 106.84375 200.832031 106.910156 199.515625 C 106.972656 198.199219 107.070312 196.882812 107.199219 195.566406 C 107.328125 194.253906 107.488281 192.945312 107.679688 191.640625 C 107.875 190.335938 108.097656 189.035156 108.355469 187.738281 C 108.613281 186.445312 108.902344 185.15625 109.222656 183.878906 C 109.539062 182.597656 109.890625 181.324219 110.273438 180.0625 C 110.65625 178.800781 111.070312 177.546875 111.511719 176.304688 C 111.957031 175.0625 112.429688 173.832031 112.933594 172.613281 C 113.4375 171.390625 113.972656 170.1875 114.535156 168.992188 C 115.097656 167.800781 115.6875 166.621094 116.308594 165.457031 C 116.929688 164.292969 117.578125 163.144531 118.257812 162.011719 C 118.933594 160.878906 119.636719 159.765625 120.371094 158.667969 C 121.101562 157.570312 121.859375 156.492188 122.644531 155.433594 C 123.429688 154.371094 124.238281 153.332031 125.074219 152.3125 C 125.910156 151.289062 126.769531 150.292969 127.65625 149.3125 C 128.539062 148.335938 129.449219 147.378906 130.378906 146.445312 C 131.3125 145.511719 132.265625 144.601562 133.242188 143.714844 C 134.21875 142.832031 135.214844 141.96875 136.234375 141.128906 C 137.25 140.292969 138.289062 139.480469 139.347656 138.695312 C 140.40625 137.910156 141.484375 137.148438 142.578125 136.414062 C 143.671875 135.683594 144.785156 134.976562 145.917969 134.296875 C 147.046875 133.617188 148.191406 132.96875 149.355469 132.347656 C 150.515625 131.722656 151.691406 131.128906 152.882812 130.566406 C 154.074219 130 155.277344 129.464844 156.496094 128.960938 C 157.710938 128.457031 158.941406 127.980469 160.183594 127.535156 C 161.421875 127.089844 162.671875 126.675781 163.933594 126.292969 C 165.195312 125.910156 166.464844 125.558594 167.742188 125.238281 C 169.019531 124.917969 170.304688 124.628906 171.597656 124.371094 C 172.890625 124.113281 174.1875 123.886719 175.492188 123.691406 C 176.792969 123.5 178.101562 123.335938 179.414062 123.207031 C 180.722656 123.078125 182.039062 122.980469 183.355469 122.914062 C 184.667969 122.851562 185.988281 122.816406 187.304688 122.816406 C 188.621094 122.816406 189.9375 122.851562 191.253906 122.914062 C 192.570312 122.980469 193.882812 123.078125 195.195312 123.207031 C 196.507812 123.335938 197.8125 123.496094 199.117188 123.6875 C 200.421875 123.882812 201.71875 124.109375 203.011719 124.367188 C 204.304688 124.621094 205.589844 124.910156 206.867188 125.230469 C 208.144531 125.554688 209.414062 125.90625 210.675781 126.289062 C 211.9375 126.671875 213.1875 127.085938 214.425781 127.527344 C 215.667969 127.972656 216.898438 128.449219 218.113281 128.953125 C 219.332031 129.457031 220.535156 129.992188 221.726562 130.554688 C 222.917969 131.121094 224.09375 131.714844 225.257812 132.335938 C 226.417969 132.957031 227.566406 133.609375 228.695312 134.285156 C 229.824219 134.964844 230.9375 135.671875 232.035156 136.402344 C 233.128906 137.136719 234.207031 137.894531 235.265625 138.683594 C 236.324219 139.46875 237.359375 140.28125 238.378906 141.117188 C 239.398438 141.953125 240.394531 142.816406 241.371094 143.703125 C 242.347656 144.589844 243.300781 145.496094 244.234375 146.429688 C 245.164062 147.363281 246.074219 148.320312 246.960938 149.296875 C 247.84375 150.273438 248.703125 151.273438 249.539062 152.292969 C 250.375 153.3125 251.1875 154.355469 251.972656 155.414062 C 252.757812 156.472656 253.515625 157.554688 254.246094 158.648438 C 254.980469 159.746094 255.683594 160.863281 256.363281 161.992188 C 257.039062 163.125 257.6875 164.273438 258.308594 165.4375 C 258.929688 166.601562 259.523438 167.78125 260.085938 168.972656 C 260.648438 170.164062 261.183594 171.371094 261.6875 172.589844 C 262.191406 173.808594 262.667969 175.042969 263.109375 176.285156 C 263.554688 177.527344 263.96875 178.777344 264.347656 180.042969 C 264.730469 181.304688 265.082031 182.578125 265.402344 183.855469 C 265.722656 185.136719 266.011719 186.425781 266.269531 187.71875 C 266.527344 189.011719 266.75 190.3125 266.945312 191.617188 C 267.136719 192.921875 267.300781 194.234375 267.429688 195.546875 C 267.558594 196.859375 267.65625 198.175781 267.71875 199.492188 C 267.785156 200.8125 267.816406 202.128906 267.816406 203.449219 C 267.816406 204.769531 267.785156 206.089844 267.71875 207.40625 C 267.65625 208.722656 267.558594 210.039062 267.429688 211.351562 C 267.300781 212.664062 267.140625 213.972656 266.945312 215.277344 C 266.753906 216.582031 266.527344 217.882812 266.269531 219.175781 C 266.011719 220.46875 265.726562 221.757812 265.40625 223.039062 C 265.085938 224.316406 264.734375 225.589844 264.351562 226.851562 C 263.96875 228.113281 263.558594 229.367188 263.113281 230.609375 C 262.667969 231.851562 262.195312 233.082031 261.691406 234.300781 C 261.1875 235.519531 260.65625 236.722656 260.089844 237.917969 C 259.527344 239.109375 258.9375 240.289062 258.316406 241.449219 C 257.695312 242.613281 257.046875 243.761719 256.371094 244.894531 C 255.691406 246.027344 254.988281 247.140625 254.257812 248.238281 C 253.523438 249.332031 252.765625 250.414062 251.980469 251.472656 C 251.199219 252.53125 250.386719 253.570312 249.550781 254.589844 C 248.71875 255.613281 247.855469 256.609375 246.972656 257.589844 C 246.089844 258.566406 245.179688 259.519531 244.25 260.453125 C 243.320312 261.386719 242.363281 262.296875 241.390625 263.183594 C 240.414062 264.070312 239.417969 264.929688 238.398438 265.769531 C 237.382812 266.605469 236.34375 267.417969 235.285156 268.203125 C 234.226562 268.988281 233.152344 269.75 232.054688 270.480469 C 230.960938 271.214844 229.847656 271.921875 228.71875 272.601562 C 227.589844 273.277344 226.445312 273.929688 225.28125 274.550781 C 224.121094 275.171875 222.945312 275.765625 221.753906 276.332031 C 220.566406 276.894531 219.359375 277.429688 218.144531 277.933594 C 216.925781 278.441406 215.699219 278.914062 214.460938 279.359375 C 213.21875 279.804688 211.96875 280.21875 210.707031 280.601562 C 209.449219 280.984375 208.179688 281.339844 206.902344 281.660156 C 205.625 281.980469 204.339844 282.269531 203.046875 282.527344 C 201.757812 282.785156 200.460938 283.011719 199.15625 283.207031 C 197.855469 283.398438 196.546875 283.5625 195.234375 283.691406 C 193.925781 283.820312 192.613281 283.917969 191.296875 283.984375 C 189.980469 284.050781 188.664062 284.082031 187.347656 284.082031 Z M 321.484375 165.589844 C 320.601562 165.59375 319.726562 165.507812 318.859375 165.339844 C 317.992188 165.167969 317.152344 164.914062 316.335938 164.578125 C 315.519531 164.242188 314.742188 163.828125 314.007812 163.335938 C 313.273438 162.847656 312.59375 162.289062 311.96875 161.664062 C 311.34375 161.042969 310.785156 160.363281 310.292969 159.628906 C 309.800781 158.890625 309.386719 158.117188 309.046875 157.300781 C 308.707031 156.484375 308.453125 155.640625 308.277344 154.773438 C 308.105469 153.90625 308.019531 153.03125 308.019531 152.148438 C 308.015625 151.261719 308.101562 150.386719 308.273438 149.519531 C 308.445312 148.652344 308.699219 147.808594 309.039062 146.992188 C 309.375 146.175781 309.789062 145.398438 310.28125 144.664062 C 310.769531 143.925781 311.328125 143.246094 311.953125 142.621094 C 312.578125 141.996094 313.257812 141.4375 313.992188 140.945312 C 314.726562 140.457031 315.5 140.039062 316.316406 139.703125 C 317.132812 139.363281 317.972656 139.109375 318.839844 138.9375 C 319.703125 138.765625 320.578125 138.679688 321.460938 138.679688 C 322.34375 138.679688 323.21875 138.769531 324.085938 138.941406 C 324.953125 139.117188 325.792969 139.371094 326.605469 139.710938 C 327.421875 140.050781 328.195312 140.464844 328.929688 140.960938 C 329.664062 141.453125 330.34375 142.011719 330.964844 142.636719 C 331.589844 143.261719 332.144531 143.945312 332.632812 144.679688 C 333.125 145.417969 333.535156 146.195312 333.871094 147.011719 C 334.207031 147.828125 334.460938 148.671875 334.632812 149.539062 C 334.804688 150.410156 334.886719 151.285156 334.882812 152.167969 C 334.882812 153.050781 334.800781 153.921875 334.628906 154.789062 C 334.457031 155.652344 334.203125 156.492188 333.863281 157.304688 C 333.527344 158.121094 333.113281 158.894531 332.625 159.625 C 332.136719 160.359375 331.582031 161.035156 330.960938 161.660156 C 330.335938 162.28125 329.660156 162.839844 328.929688 163.328125 C 328.199219 163.820312 327.425781 164.230469 326.613281 164.570312 C 325.800781 164.90625 324.960938 165.160156 324.097656 165.332031 C 323.234375 165.503906 322.363281 165.589844 321.484375 165.589844 Z M 321.484375 165.589844 " fill-opacity="1" fill-rule="nonzero"/></g><path fill="#000000" d="M 243.453125 203.449219 C 243.453125 205.289062 243.363281 207.125 243.183594 208.957031 C 243 210.789062 242.734375 212.609375 242.375 214.414062 C 242.015625 216.21875 241.570312 218 241.035156 219.761719 C 240.503906 221.523438 239.882812 223.253906 239.179688 224.957031 C 238.476562 226.65625 237.695312 228.316406 236.828125 229.941406 C 235.960938 231.5625 235.019531 233.140625 233.996094 234.671875 C 232.976562 236.199219 231.882812 237.675781 230.71875 239.101562 C 229.550781 240.523438 228.320312 241.886719 227.019531 243.1875 C 225.71875 244.488281 224.359375 245.722656 222.941406 246.890625 C 221.519531 248.058594 220.046875 249.152344 218.519531 250.175781 C 216.988281 251.199219 215.414062 252.140625 213.796875 253.011719 C 212.175781 253.878906 210.515625 254.664062 208.816406 255.367188 C 207.121094 256.070312 205.390625 256.691406 203.632812 257.226562 C 201.875 257.761719 200.09375 258.207031 198.292969 258.566406 C 196.492188 258.925781 194.675781 259.195312 192.847656 259.375 C 191.019531 259.554688 189.183594 259.644531 187.347656 259.644531 C 185.511719 259.644531 183.675781 259.554688 181.847656 259.375 C 180.019531 259.195312 178.203125 258.925781 176.402344 258.566406 C 174.601562 258.207031 172.820312 257.761719 171.0625 257.226562 C 169.304688 256.691406 167.574219 256.070312 165.878906 255.367188 C 164.179688 254.664062 162.519531 253.878906 160.902344 253.011719 C 159.28125 252.140625 157.707031 251.199219 156.179688 250.175781 C 154.648438 249.152344 153.175781 248.058594 151.753906 246.890625 C 150.335938 245.722656 148.976562 244.488281 147.675781 243.1875 C 146.375 241.886719 145.144531 240.523438 143.980469 239.101562 C 142.8125 237.675781 141.71875 236.199219 140.699219 234.671875 C 139.679688 233.140625 138.734375 231.5625 137.867188 229.941406 C 137.003906 228.316406 136.21875 226.65625 135.515625 224.957031 C 134.8125 223.253906 134.191406 221.523438 133.660156 219.761719 C 133.125 218 132.679688 216.21875 132.320312 214.414062 C 131.964844 212.609375 131.695312 210.789062 131.515625 208.957031 C 131.332031 207.125 131.242188 205.289062 131.242188 203.449219 C 131.242188 201.609375 131.332031 199.773438 131.515625 197.941406 C 131.695312 196.109375 131.964844 194.292969 132.320312 192.488281 C 132.679688 190.683594 133.125 188.898438 133.660156 187.136719 C 134.191406 185.375 134.8125 183.644531 135.515625 181.945312 C 136.21875 180.246094 137.003906 178.582031 137.867188 176.960938 C 138.734375 175.335938 139.679688 173.761719 140.699219 172.230469 C 141.71875 170.699219 142.8125 169.222656 143.980469 167.800781 C 145.144531 166.378906 146.375 165.015625 147.675781 163.714844 C 148.976562 162.414062 150.335938 161.179688 151.753906 160.011719 C 153.175781 158.84375 154.648438 157.75 156.179688 156.726562 C 157.707031 155.703125 159.28125 154.757812 160.902344 153.890625 C 162.519531 153.023438 164.179688 152.238281 165.878906 151.53125 C 167.574219 150.828125 169.304688 150.210938 171.0625 149.675781 C 172.820312 149.140625 174.601562 148.695312 176.402344 148.335938 C 178.203125 147.976562 180.019531 147.707031 181.847656 147.527344 C 183.675781 147.34375 185.511719 147.253906 187.347656 147.253906 C 189.183594 147.253906 191.019531 147.34375 192.847656 147.527344 C 194.675781 147.707031 196.492188 147.976562 198.292969 148.335938 C 200.09375 148.695312 201.875 149.140625 203.632812 149.675781 C 205.390625 150.210938 207.121094 150.828125 208.816406 151.53125 C 210.515625 152.238281 212.175781 153.023438 213.796875 153.890625 C 215.414062 154.757812 216.988281 155.703125 218.519531 156.726562 C 220.046875 157.75 221.519531 158.84375 222.941406 160.011719 C 224.359375 161.179688 225.71875 162.414062 227.019531 163.714844 C 228.320312 165.015625 229.550781 166.378906 230.71875 167.800781 C 231.882812 169.222656 232.976562 170.699219 233.996094 172.230469 C 235.019531 173.761719 235.960938 175.335938 236.828125 176.960938 C 237.695312 178.582031 238.476562 180.246094 239.179688 181.945312 C 239.882812 183.644531 240.503906 185.375 241.035156 187.136719 C 241.570312 188.898438 242.015625 190.683594 242.375 192.488281 C 242.734375 194.292969 243 196.109375 243.183594 197.941406 C 243.363281 199.773438 243.453125 201.609375 243.453125 203.449219 Z M 243.453125 203.449219 " fill-opacity="1" fill-rule="nonzero"/></svg>