<svg xmlns="http://www.w3.org/2000/svg" xmlns:xlink="http://www.w3.org/1999/xlink" width="500" zoomAndPan="magnify" viewBox="0 0 375 374.999991" height="500" preserveAspectRatio="xMidYMid meet" version="1.0"><defs><clipPath id="60ca8fc7a0"><path d="M 129 48 L 252 48 L 252 327.421875 L 129 327.421875 Z M 129 48 " clip-rule="nonzero"/></clipPath></defs><g clip-path="url(#60ca8fc7a0)"><path fill="#231f20" d="M 249.941406 309.457031 C 249.011719 307.671875 221.839844 262.527344 218.988281 257.804688 C 219.175781 257.367188 219.285156 256.882812 219.285156 256.375 L 219.285156 255.042969 C 219.285156 253.027344 217.644531 251.390625 215.625 251.390625 L 214.085938 251.390625 L 214.085938 208.023438 L 217.234375 208.023438 C 218.773438 208.023438 220.03125 206.769531 220.03125 205.234375 L 220.03125 203.140625 C 220.03125 201.609375 218.773438 200.351562 217.234375 200.351562 L 214.078125 200.351562 L 213.742188 151.128906 L 215.613281 151.128906 C 217.636719 151.128906 219.277344 149.492188 219.277344 147.472656 L 219.277344 146.144531 C 219.277344 144.386719 218.011719 142.992188 216.351562 142.640625 L 216.910156 141.300781 L 221.550781 145.027344 C 221.664062 145.121094 221.804688 145.160156 221.925781 145.234375 L 241.730469 160.824219 C 241.917969 160.976562 242.140625 161.050781 242.363281 161.050781 C 242.664062 161.050781 242.960938 160.917969 243.167969 160.660156 C 243.511719 160.222656 243.4375 159.582031 243 159.234375 L 225.691406 145.613281 C 226.304688 145.363281 226.875 144.972656 227.3125 144.425781 C 228.730469 142.667969 228.449219 140.089844 226.695312 138.679688 L 217.496094 131.285156 L 217.28125 127.890625 C 217.207031 126.777344 216.667969 125.734375 215.792969 125.046875 L 211.484375 121.652344 C 208.578125 119.367188 204.316406 119.839844 201.988281 122.730469 L 199.910156 125.316406 L 194.753906 121.261719 C 201.71875 112.800781 206.984375 106.871094 208.941406 104.695312 C 209.640625 105.113281 210.300781 105.53125 210.878906 105.929688 C 211.054688 106.050781 211.253906 106.105469 211.457031 106.105469 C 211.785156 106.105469 212.101562 105.949219 212.296875 105.660156 C 212.613281 105.195312 212.5 104.5625 212.035156 104.246094 C 211.476562 103.867188 210.851562 103.464844 210.191406 103.066406 C 218.753906 86.285156 227.730469 72.523438 229.976562 69.148438 C 230.769531 69.277344 231.542969 69.417969 232.296875 69.574219 C 232.375 69.59375 232.4375 69.59375 232.503906 69.59375 C 232.980469 69.59375 233.40625 69.257812 233.5 68.785156 C 233.613281 68.234375 233.257812 67.695312 232.707031 67.585938 C 232.007812 67.4375 231.28125 67.304688 230.554688 67.183594 C 228.273438 59.996094 227.878906 52.335938 227.816406 50.664062 C 227.972656 50.53125 228.039062 50.484375 228.085938 50.449219 C 229.167969 50.261719 229.828125 50.160156 229.867188 50.152344 C 230.414062 50.058594 230.796875 49.546875 230.714844 48.988281 C 230.621094 48.441406 230.117188 48.039062 229.550781 48.144531 C 229.335938 48.179688 207.898438 51.574219 192.414062 56.734375 C 178.621094 61.335938 169.785156 71.089844 167.585938 73.730469 C 164.425781 74.613281 162.605469 75.8125 161.328125 76.667969 C 157.898438 78.964844 154.058594 84.953125 152.933594 86.796875 L 151.691406 86.730469 C 151.367188 86.683594 151.019531 86.859375 150.816406 87.140625 C 150.609375 87.417969 150.566406 87.769531 150.675781 88.097656 L 151.140625 89.371094 C 149.4375 90.960938 143.957031 96.214844 142.457031 99.03125 C 141.765625 100.324219 140.664062 102.398438 140.664062 106.320312 C 139.949219 107.074219 123.207031 125.128906 131.1875 168.507812 C 131.222656 168.703125 131.34375 168.851562 131.464844 168.980469 C 131.417969 169.109375 131.390625 169.242188 131.390625 169.378906 L 131.449219 171.472656 C 131.464844 172.019531 131.914062 172.457031 132.464844 172.457031 C 132.472656 172.457031 132.480469 172.457031 132.492188 172.457031 C 133.050781 172.4375 133.5 171.972656 133.480469 171.417969 L 133.433594 169.566406 L 145.039062 169.667969 L 145.410156 171.796875 C 145.492188 172.289062 145.933594 172.644531 146.417969 172.644531 C 146.472656 172.644531 146.527344 172.632812 146.59375 172.625 C 147.144531 172.53125 147.515625 172.003906 147.421875 171.453125 L 146.984375 168.980469 C 160.753906 154.335938 173.855469 145.308594 177.0625 143.195312 L 177.910156 144.507812 C 178.109375 144.804688 178.433594 144.972656 178.769531 144.972656 C 178.964844 144.972656 179.152344 144.917969 179.328125 144.804688 C 179.804688 144.5 179.933594 143.867188 179.625 143.402344 L 178.582031 141.8125 C 183.886719 134.734375 188.964844 128.320312 193.441406 122.84375 L 212.324219 137.710938 C 212.257812 137.785156 212.15625 137.8125 212.117188 137.914062 L 210.328125 142.230469 C 210.292969 142.324219 210.339844 142.414062 210.328125 142.519531 L 206.378906 142.519531 C 204.363281 142.519531 202.714844 144.15625 202.714844 146.171875 L 202.714844 147.503906 C 202.714844 149.519531 204.355469 151.15625 206.378906 151.15625 L 207.375 151.15625 L 207.375 200.378906 L 204.820312 200.378906 L 204.820312 199.355469 C 204.820312 197.535156 203.339844 196.054688 201.511719 196.054688 C 199.683594 196.054688 198.203125 197.535156 198.203125 199.355469 L 198.203125 208.46875 C 198.203125 210.292969 199.683594 211.78125 201.511719 211.78125 C 203.339844 211.78125 204.820312 210.300781 204.820312 208.46875 L 204.820312 208.050781 L 207.375 208.050781 L 207.375 251.417969 L 206.378906 251.417969 C 204.363281 251.417969 202.714844 253.054688 202.714844 255.070312 L 202.714844 256.402344 C 202.714844 257.03125 202.917969 257.589844 203.199219 258.113281 C 192.367188 275.992188 172.066406 309.484375 171.472656 310.367188 C 170.242188 312.207031 170.371094 313.972656 171.84375 315.210938 C 172.871094 316.074219 173.78125 316.316406 174.492188 316.316406 C 174.707031 316.316406 174.902344 316.289062 175.070312 316.261719 C 176.113281 316.058594 177.015625 315.324219 177.613281 314.179688 C 177.910156 313.601562 183.355469 304.359375 190.027344 293.042969 L 207.1875 303.8125 L 207.105469 324.109375 C 207.105469 325.847656 208.660156 327.113281 210.796875 327.113281 C 212.929688 327.113281 214.488281 325.847656 214.488281 324.109375 L 214.355469 304.527344 C 214.402344 304.507812 214.449219 304.519531 214.488281 304.492188 L 231.824219 293.796875 C 238.085938 304.371094 243.511719 313.492188 243.988281 314.125 C 245.1875 315.742188 246.417969 316.242188 247.464844 316.242188 C 248.332031 316.242188 249.074219 315.910156 249.597656 315.574219 C 252.246094 313.882812 250.511719 310.554688 249.941406 309.457031 Z M 193.152344 119.988281 L 173.316406 104.378906 C 176.746094 100.222656 180.046875 96.128906 183.019531 92.347656 C 186.019531 93.59375 198.957031 99.023438 207.152344 103.632812 C 204.96875 106.058594 199.835938 111.882812 193.152344 119.988281 Z M 208.4375 102.023438 C 200.523438 97.515625 188.230469 92.308594 184.324219 90.679688 C 189.207031 84.425781 193.046875 79.234375 194.773438 76.503906 C 195.0625 76.558594 195.3125 76.59375 195.613281 76.652344 C 196.144531 76.753906 196.703125 76.390625 196.804688 75.84375 C 196.859375 75.542969 196.769531 75.265625 196.589844 75.042969 C 199.089844 73.125 202.425781 70.53125 205.996094 67.761719 C 206.507812 67.742188 217.785156 67.453125 227.757812 68.804688 C 224.859375 73.199219 216.480469 86.265625 208.4375 102.023438 Z M 228.320312 66.832031 C 220.925781 65.808594 212.78125 65.6875 208.632812 65.699219 C 215.363281 60.445312 222.34375 54.949219 225.847656 52.195312 C 226.027344 55.105469 226.585938 60.964844 228.320312 66.832031 Z M 193.058594 58.667969 C 203.367188 55.226562 216.371094 52.578125 223.835938 51.203125 C 217.125 56.472656 201.054688 69.089844 194.175781 74.335938 C 183.179688 72.347656 175.898438 72.28125 170.988281 73.023438 C 174.613281 69.230469 182.339844 62.238281 193.058594 58.667969 Z M 144.273438 99.980469 C 145.859375 97.003906 152.96875 90.457031 153.035156 90.394531 C 153.34375 90.113281 153.445312 89.675781 153.304688 89.296875 L 153.136719 88.832031 L 153.445312 88.851562 C 153.808594 88.933594 154.191406 88.683594 154.375 88.347656 C 154.421875 88.273438 158.871094 80.761719 162.46875 78.34375 C 163.53125 77.636719 165.011719 76.660156 167.464844 75.878906 C 167.59375 75.933594 167.722656 76.007812 167.855469 76.007812 C 168.164062 76.007812 168.460938 75.871094 168.664062 75.609375 C 168.664062 75.609375 168.710938 75.554688 168.738281 75.515625 C 173.15625 74.402344 180.335938 73.980469 192.582031 76.101562 C 186.710938 85.019531 163.714844 113.816406 149.324219 128.46875 C 139.875 108.328125 142.921875 102.519531 144.273438 99.980469 Z M 140.890625 109.351562 C 141.4375 113.992188 143.339844 120.601562 147.851562 130.105469 L 132.835938 165.746094 C 127.261719 132.078125 137.234375 114.4375 140.890625 109.351562 Z M 134.300781 167.539062 L 141.636719 150.113281 L 144.703125 167.632812 Z M 146.574219 166.488281 L 143.125 146.785156 C 143.117188 146.75 143.078125 146.738281 143.070312 146.703125 L 149.027344 132.550781 C 149.046875 132.597656 149.0625 132.625 149.082031 132.671875 C 149.257812 133.023438 149.625 133.238281 149.996094 133.238281 C 150.144531 133.238281 150.304688 133.203125 150.453125 133.136719 C 150.957031 132.886719 151.160156 132.273438 150.910156 131.769531 C 150.675781 131.304688 150.488281 130.886719 150.265625 130.441406 C 153.519531 127.15625 157.230469 123.121094 161.117188 118.707031 L 175.972656 141.484375 C 172.804688 143.578125 160.117188 152.328125 146.574219 166.488281 Z M 177.425781 139.980469 L 162.515625 117.125 C 165.65625 113.527344 168.871094 109.734375 172.019531 105.949219 L 191.863281 121.570312 C 187.511719 126.898438 182.582031 133.128906 177.425781 139.980469 Z M 214.300781 260.019531 L 215.625 260.019531 C 216.351562 260.019531 216.992188 259.75 217.570312 259.375 C 225.679688 272.847656 238.933594 294.886719 244.976562 305.019531 L 242.113281 307.011719 C 235.402344 295.796875 221.03125 271.445312 214.300781 260.019531 Z M 180.269531 305.617188 L 177.6875 304.109375 C 185.667969 290.988281 201.726562 264.480469 204.71875 259.554688 C 205.230469 259.824219 205.789062 260.019531 206.40625 260.019531 L 207.179688 260.019531 C 204.484375 264.574219 188.257812 292.023438 180.269531 305.617188 Z M 209.433594 260.019531 L 212.042969 260.019531 L 212.417969 315.082031 L 209.210938 315.082031 Z M 225.726562 143.140625 C 225.09375 143.921875 224.011719 144.089844 223.15625 143.617188 L 217.617188 139.265625 L 214.078125 136.417969 C 214.261719 136.175781 214.457031 135.917969 214.664062 135.664062 C 215.351562 134.78125 216.050781 133.871094 216.628906 133.203125 L 217.394531 133.816406 L 216.082031 135.441406 C 215.894531 135.675781 215.929688 136.019531 216.164062 136.214844 C 216.265625 136.296875 216.386719 136.335938 216.507812 136.335938 C 216.667969 136.335938 216.824219 136.261719 216.9375 136.128906 L 218.253906 134.503906 L 219.195312 135.257812 L 217.878906 136.882812 C 217.683594 137.117188 217.722656 137.460938 217.964844 137.644531 C 218.066406 137.730469 218.1875 137.765625 218.308594 137.765625 C 218.464844 137.765625 218.625 137.691406 218.738281 137.5625 L 220.050781 135.933594 L 220.992188 136.6875 L 219.679688 138.316406 C 219.492188 138.546875 219.527344 138.890625 219.761719 139.085938 C 219.863281 139.171875 219.984375 139.207031 220.105469 139.207031 C 220.265625 139.207031 220.425781 139.132812 220.535156 139.003906 L 221.839844 137.386719 L 222.78125 138.148438 L 221.46875 139.773438 C 221.273438 140.007812 221.308594 140.351562 221.550781 140.539062 C 221.652344 140.621094 221.777344 140.660156 221.898438 140.660156 C 222.054688 140.660156 222.214844 140.585938 222.324219 140.453125 L 223.640625 138.828125 L 224.582031 139.578125 L 223.265625 141.207031 C 223.082031 141.441406 223.117188 141.785156 223.351562 141.980469 C 223.453125 142.0625 223.574219 142.101562 223.695312 142.101562 C 223.855469 142.101562 224.011719 142.027344 224.125 141.894531 L 225.4375 140.269531 C 226.304688 140.984375 226.4375 142.265625 225.726562 143.140625 Z M 203.582031 123.996094 C 205.203125 121.988281 208.175781 121.636719 210.21875 123.242188 L 214.523438 126.636719 C 214.953125 126.972656 215.214844 127.472656 215.25 128.011719 L 215.464844 131.425781 C 214.792969 132.167969 213.917969 133.292969 213.050781 134.410156 L 212.445312 135.183594 L 201.503906 126.570312 Z M 213.917969 138.929688 L 215.261719 139.980469 L 214.214844 142.492188 L 212.445312 142.492188 Z M 204.785156 147.472656 L 204.785156 146.144531 C 204.785156 145.25 205.511719 144.527344 206.40625 144.527344 L 215.625 144.527344 C 216.519531 144.527344 217.246094 145.25 217.246094 146.144531 L 217.246094 147.472656 C 217.246094 148.050781 216.929688 148.535156 216.472656 148.824219 L 216.472656 146.871094 C 216.472656 146.5625 216.230469 146.320312 215.921875 146.320312 C 215.613281 146.320312 215.371094 146.5625 215.371094 146.871094 L 215.371094 149.09375 L 214.011719 149.09375 L 214.011719 146.871094 C 214.011719 146.5625 213.769531 146.320312 213.460938 146.320312 C 213.152344 146.320312 212.910156 146.5625 212.910156 146.871094 L 212.910156 149.09375 L 211.550781 149.09375 L 211.550781 146.871094 C 211.550781 146.5625 211.308594 146.320312 211 146.320312 C 210.691406 146.320312 210.449219 146.5625 210.449219 146.871094 L 210.449219 149.09375 L 209.089844 149.09375 L 209.089844 146.871094 C 209.089844 146.5625 208.847656 146.320312 208.539062 146.320312 C 208.230469 146.320312 207.988281 146.5625 207.988281 146.871094 L 207.988281 149.09375 L 206.628906 149.09375 L 206.628906 146.871094 C 206.628906 146.5625 206.386719 146.320312 206.078125 146.320312 C 205.773438 146.320312 205.53125 146.5625 205.53125 146.871094 L 205.53125 148.8125 C 205.101562 148.535156 204.785156 148.050781 204.785156 147.472656 Z M 209.433594 151.128906 L 211.707031 151.128906 L 212.042969 200.351562 L 209.445312 200.351562 L 209.445312 151.128906 Z M 202.808594 208.433594 C 202.808594 209.128906 202.238281 209.707031 201.539062 209.707031 C 200.980469 209.707031 200.523438 209.335938 200.347656 208.839844 L 201.566406 208.839844 C 201.875 208.839844 202.117188 208.597656 202.117188 208.292969 C 202.117188 207.984375 201.875 207.746094 201.566406 207.746094 L 200.261719 207.746094 L 200.261719 207.121094 L 201.558594 207.121094 C 201.867188 207.121094 202.109375 206.878906 202.109375 206.574219 C 202.109375 206.265625 201.867188 206.023438 201.558594 206.023438 L 200.261719 206.023438 L 200.261719 205.402344 L 201.558594 205.402344 C 201.867188 205.402344 202.109375 205.160156 202.109375 204.851562 C 202.109375 204.546875 201.867188 204.304688 201.558594 204.304688 L 200.261719 204.304688 L 200.261719 203.679688 L 201.558594 203.679688 C 201.867188 203.679688 202.109375 203.4375 202.109375 203.132812 C 202.109375 202.824219 201.867188 202.582031 201.558594 202.582031 L 200.261719 202.582031 L 200.261719 201.960938 L 201.558594 201.960938 C 201.867188 201.960938 202.109375 201.71875 202.109375 201.414062 C 202.109375 201.105469 201.867188 200.863281 201.558594 200.863281 L 200.261719 200.863281 L 200.261719 200.242188 L 201.558594 200.242188 C 201.867188 200.242188 202.109375 200 202.109375 199.691406 C 202.109375 199.386719 201.867188 199.144531 201.558594 199.144531 L 200.289062 199.144531 C 200.367188 198.519531 200.886719 198.027344 201.53125 198.027344 C 202.230469 198.027344 202.796875 198.59375 202.796875 199.292969 L 202.796875 208.433594 Z M 204.847656 202.386719 L 217.234375 202.386719 C 217.65625 202.386719 217.992188 202.722656 217.992188 203.140625 L 217.992188 205.234375 C 217.992188 205.652344 217.65625 205.988281 217.234375 205.988281 L 216.742188 205.988281 L 216.742188 204.035156 C 216.742188 203.726562 216.5 203.484375 216.191406 203.484375 C 215.882812 203.484375 215.640625 203.726562 215.640625 204.035156 L 215.640625 205.988281 L 214.28125 205.988281 L 214.28125 204.035156 C 214.28125 203.726562 214.039062 203.484375 213.730469 203.484375 C 213.425781 203.484375 213.183594 203.726562 213.183594 204.035156 L 213.183594 205.988281 L 211.820312 205.988281 L 211.820312 204.035156 C 211.820312 203.726562 211.578125 203.484375 211.269531 203.484375 C 210.964844 203.484375 210.722656 203.726562 210.722656 204.035156 L 210.722656 205.988281 L 209.359375 205.988281 L 209.359375 204.035156 C 209.359375 203.726562 209.117188 203.484375 208.808594 203.484375 C 208.503906 203.484375 208.261719 203.726562 208.261719 204.035156 L 208.261719 205.988281 L 206.898438 205.988281 L 206.898438 204.035156 C 206.898438 203.726562 206.65625 203.484375 206.347656 203.484375 C 206.042969 203.484375 205.800781 203.726562 205.800781 204.035156 L 205.800781 205.988281 L 204.832031 205.988281 L 204.832031 202.386719 Z M 209.433594 208.023438 L 212.042969 208.023438 L 212.042969 251.390625 L 209.433594 251.390625 Z M 204.785156 255.042969 C 204.785156 254.152344 205.511719 253.425781 206.40625 253.425781 L 215.625 253.425781 C 216.519531 253.425781 217.246094 254.152344 217.246094 255.042969 L 217.246094 256.375 C 217.246094 256.949219 216.929688 257.433594 216.472656 257.722656 L 216.472656 255.769531 C 216.472656 255.460938 216.230469 255.21875 215.921875 255.21875 C 215.613281 255.21875 215.371094 255.460938 215.371094 255.769531 L 215.371094 257.992188 L 214.011719 257.992188 L 214.011719 255.769531 C 214.011719 255.460938 213.769531 255.21875 213.460938 255.21875 C 213.152344 255.21875 212.910156 255.460938 212.910156 255.769531 L 212.910156 257.992188 L 211.550781 257.992188 L 211.550781 255.769531 C 211.550781 255.460938 211.308594 255.21875 211 255.21875 C 210.691406 255.21875 210.449219 255.460938 210.449219 255.769531 L 210.449219 257.992188 L 209.089844 257.992188 L 209.089844 255.769531 C 209.089844 255.460938 208.847656 255.21875 208.539062 255.21875 C 208.230469 255.21875 207.988281 255.460938 207.988281 255.769531 L 207.988281 257.992188 L 206.628906 257.992188 L 206.628906 255.769531 C 206.628906 255.460938 206.386719 255.21875 206.078125 255.21875 C 205.773438 255.21875 205.53125 255.460938 205.53125 255.769531 L 205.53125 257.722656 C 205.074219 257.433594 204.753906 256.949219 204.753906 256.382812 L 204.753906 255.042969 Z M 175.832031 313.203125 C 175.535156 313.78125 175.125 314.152344 174.707031 314.234375 C 174.175781 314.355469 173.578125 313.964844 173.1875 313.628906 C 172.738281 313.25 172.335938 312.746094 173.195312 311.464844 C 173.363281 311.222656 174.855469 308.769531 177.109375 305.058594 L 179.703125 306.5625 C 177.484375 310.359375 176 312.886719 175.832031 313.203125 Z M 191.101562 291.25 C 196.535156 282.046875 202.621094 271.742188 207.382812 263.679688 L 207.234375 301.375 Z M 210.832031 325.03125 C 210.171875 325.03125 209.183594 324.769531 209.183594 324.0625 L 209.210938 316.167969 L 212.425781 316.167969 L 212.484375 324.054688 C 212.484375 324.777344 211.496094 325.03125 210.832031 325.03125 Z M 214.375 302.148438 L 214.113281 263.71875 C 217.5625 269.566406 224.488281 281.308594 230.824219 292.011719 Z M 248.542969 313.816406 C 247.78125 314.300781 246.886719 314.523438 245.664062 312.867188 C 245.46875 312.609375 244.367188 310.785156 242.683594 307.957031 L 245.542969 305.96875 C 247.035156 308.480469 247.984375 310.089844 248.132812 310.386719 C 249.570312 313.164062 248.851562 313.621094 248.542969 313.816406 Z M 248.542969 313.816406 " fill-opacity="1" fill-rule="nonzero"/></g></svg>