<svg xmlns="http://www.w3.org/2000/svg" xmlns:xlink="http://www.w3.org/1999/xlink" width="500" zoomAndPan="magnify" viewBox="0 0 375 374.999991" height="500" preserveAspectRatio="xMidYMid meet" version="1.0"><defs><clipPath id="a0fefffd5f"><path d="M 169 161.175781 L 207.855469 161.175781 L 207.855469 248.175781 L 169 248.175781 Z M 169 161.175781 " clip-rule="nonzero"/></clipPath></defs><g clip-path="url(#a0fefffd5f)"><path fill="#231f20" d="M 207.167969 242.582031 C 206.878906 242.027344 198.507812 227.992188 197.628906 226.523438 C 197.6875 226.386719 197.71875 226.234375 197.71875 226.078125 L 197.71875 225.664062 C 197.71875 225.035156 197.214844 224.527344 196.589844 224.527344 L 196.117188 224.527344 L 196.117188 211.042969 L 197.089844 211.042969 C 197.5625 211.042969 197.949219 210.652344 197.949219 210.175781 L 197.949219 209.523438 C 197.949219 209.046875 197.5625 208.65625 197.089844 208.65625 L 196.113281 208.65625 L 196.011719 193.351562 L 196.589844 193.351562 C 197.210938 193.351562 197.71875 192.839844 197.71875 192.214844 L 197.71875 191.800781 C 197.71875 191.253906 197.328125 190.820312 196.816406 190.710938 L 196.988281 190.292969 L 198.417969 191.453125 C 198.453125 191.480469 198.496094 191.492188 198.53125 191.515625 L 204.636719 196.367188 C 204.695312 196.410156 204.761719 196.433594 204.832031 196.433594 C 204.921875 196.433594 205.015625 196.394531 205.078125 196.3125 C 205.183594 196.175781 205.160156 195.976562 205.027344 195.871094 L 199.691406 191.636719 C 199.882812 191.558594 200.058594 191.4375 200.191406 191.265625 C 200.628906 190.71875 200.542969 189.917969 200.003906 189.476562 L 197.167969 187.179688 L 197.101562 186.125 C 197.078125 185.777344 196.914062 185.453125 196.644531 185.238281 L 195.316406 184.183594 C 194.421875 183.472656 193.109375 183.621094 192.390625 184.519531 L 191.75 185.324219 L 190.160156 184.0625 C 192.304688 181.429688 193.929688 179.585938 194.53125 178.910156 C 194.746094 179.039062 194.953125 179.171875 195.128906 179.292969 C 195.183594 179.332031 195.246094 179.351562 195.308594 179.351562 C 195.40625 179.351562 195.503906 179.300781 195.566406 179.210938 C 195.664062 179.066406 195.628906 178.871094 195.484375 178.773438 C 195.3125 178.652344 195.121094 178.527344 194.917969 178.40625 C 197.554688 173.183594 200.324219 168.90625 201.015625 167.855469 C 201.257812 167.898438 201.496094 167.941406 201.730469 167.988281 C 201.753906 167.996094 201.773438 167.996094 201.792969 167.996094 C 201.9375 167.996094 202.070312 167.890625 202.101562 167.742188 C 202.132812 167.574219 202.027344 167.40625 201.855469 167.371094 C 201.640625 167.324219 201.417969 167.285156 201.191406 167.246094 C 200.488281 165.011719 200.367188 162.628906 200.347656 162.109375 C 200.398438 162.066406 200.417969 162.054688 200.429688 162.042969 C 200.765625 161.984375 200.96875 161.953125 200.980469 161.949219 C 201.148438 161.921875 201.265625 161.761719 201.242188 161.589844 C 201.210938 161.417969 201.058594 161.292969 200.882812 161.324219 C 200.816406 161.335938 194.210938 162.390625 189.441406 163.996094 C 185.1875 165.429688 182.464844 168.460938 181.789062 169.28125 C 180.816406 169.558594 180.253906 169.929688 179.863281 170.195312 C 178.804688 170.910156 177.621094 172.773438 177.273438 173.34375 L 176.890625 173.324219 C 176.792969 173.308594 176.683594 173.363281 176.621094 173.453125 C 176.558594 173.539062 176.542969 173.648438 176.578125 173.75 L 176.722656 174.144531 C 176.195312 174.640625 174.507812 176.273438 174.046875 177.148438 C 173.832031 177.550781 173.492188 178.195312 173.492188 179.417969 C 173.273438 179.652344 168.113281 185.265625 170.574219 198.753906 C 170.585938 198.816406 170.621094 198.859375 170.660156 198.902344 C 170.644531 198.941406 170.636719 198.980469 170.636719 199.027344 L 170.652344 199.675781 C 170.660156 199.847656 170.796875 199.984375 170.964844 199.984375 C 170.96875 199.984375 170.972656 199.984375 170.976562 199.984375 C 171.148438 199.976562 171.285156 199.832031 171.28125 199.660156 L 171.265625 199.082031 L 174.839844 199.113281 L 174.957031 199.777344 C 174.980469 199.929688 175.117188 200.039062 175.265625 200.039062 C 175.285156 200.039062 175.300781 200.039062 175.320312 200.035156 C 175.488281 200.003906 175.605469 199.839844 175.578125 199.671875 L 175.441406 198.902344 C 179.683594 194.347656 183.722656 191.539062 184.710938 190.882812 L 184.972656 191.292969 C 185.03125 191.382812 185.132812 191.4375 185.234375 191.4375 C 185.296875 191.4375 185.351562 191.417969 185.40625 191.382812 C 185.554688 191.289062 185.59375 191.089844 185.5 190.945312 L 185.175781 190.453125 C 186.8125 188.253906 188.378906 186.257812 189.753906 184.554688 L 195.574219 189.175781 C 195.554688 189.199219 195.523438 189.210938 195.511719 189.242188 L 194.960938 190.582031 C 194.949219 190.613281 194.964844 190.640625 194.960938 190.671875 L 193.742188 190.671875 C 193.121094 190.671875 192.613281 191.179688 192.613281 191.808594 L 192.613281 192.222656 C 192.613281 192.847656 193.117188 193.359375 193.742188 193.359375 L 194.050781 193.359375 L 194.050781 208.664062 L 193.261719 208.664062 L 193.261719 208.347656 C 193.261719 207.78125 192.804688 207.320312 192.242188 207.320312 C 191.679688 207.320312 191.222656 207.78125 191.222656 208.347656 L 191.222656 211.179688 C 191.222656 211.746094 191.679688 212.210938 192.242188 212.210938 C 192.804688 212.210938 193.261719 211.75 193.261719 211.179688 L 193.261719 211.050781 L 194.050781 211.050781 L 194.050781 224.535156 L 193.742188 224.535156 C 193.121094 224.535156 192.613281 225.042969 192.613281 225.671875 L 192.613281 226.085938 C 192.613281 226.28125 192.675781 226.457031 192.761719 226.617188 C 189.425781 232.179688 183.171875 242.59375 182.984375 242.867188 C 182.605469 243.441406 182.648438 243.988281 183.101562 244.375 C 183.417969 244.640625 183.699219 244.71875 183.917969 244.71875 C 183.984375 244.71875 184.042969 244.710938 184.09375 244.699219 C 184.417969 244.636719 184.695312 244.410156 184.878906 244.050781 C 184.972656 243.875 186.648438 241 188.703125 237.480469 L 193.992188 240.828125 L 193.964844 247.140625 C 193.964844 247.679688 194.445312 248.074219 195.105469 248.074219 C 195.761719 248.074219 196.242188 247.679688 196.242188 247.140625 L 196.199219 241.050781 C 196.214844 241.046875 196.230469 241.046875 196.242188 241.039062 L 201.582031 237.714844 C 203.511719 241.003906 205.183594 243.839844 205.332031 244.035156 C 205.703125 244.539062 206.082031 244.695312 206.402344 244.695312 C 206.667969 244.695312 206.898438 244.589844 207.058594 244.488281 C 207.875 243.960938 207.339844 242.925781 207.167969 242.582031 Z M 189.667969 183.667969 L 183.554688 178.8125 C 184.613281 177.519531 185.628906 176.246094 186.542969 175.070312 C 187.46875 175.457031 191.457031 177.148438 193.980469 178.582031 C 193.308594 179.335938 191.726562 181.144531 189.667969 183.667969 Z M 194.378906 178.082031 C 191.9375 176.679688 188.148438 175.058594 186.945312 174.554688 C 188.453125 172.605469 189.636719 170.992188 190.167969 170.144531 C 190.253906 170.160156 190.332031 170.171875 190.425781 170.191406 C 190.589844 170.222656 190.761719 170.109375 190.792969 169.9375 C 190.808594 169.847656 190.78125 169.757812 190.726562 169.691406 C 191.496094 169.09375 192.523438 168.289062 193.625 167.425781 C 193.78125 167.421875 197.257812 167.332031 200.332031 167.75 C 199.4375 169.117188 196.855469 173.179688 194.378906 178.082031 Z M 200.503906 167.136719 C 198.226562 166.820312 195.714844 166.78125 194.4375 166.785156 C 196.511719 165.148438 198.664062 163.441406 199.742188 162.585938 C 199.796875 163.492188 199.96875 165.3125 200.503906 167.136719 Z M 189.636719 164.597656 C 192.816406 163.527344 196.820312 162.703125 199.121094 162.277344 C 197.054688 163.914062 192.101562 167.839844 189.984375 169.46875 C 186.59375 168.851562 184.351562 168.832031 182.835938 169.0625 C 183.953125 167.882812 186.335938 165.707031 189.636719 164.597656 Z M 174.605469 177.445312 C 175.09375 176.519531 177.285156 174.484375 177.304688 174.464844 C 177.398438 174.375 177.429688 174.242188 177.386719 174.121094 L 177.335938 173.976562 L 177.429688 173.984375 C 177.542969 174.007812 177.660156 173.929688 177.71875 173.828125 C 177.734375 173.804688 179.101562 171.46875 180.210938 170.714844 C 180.539062 170.496094 180.996094 170.191406 181.75 169.949219 C 181.792969 169.96875 181.832031 169.992188 181.871094 169.992188 C 181.964844 169.992188 182.058594 169.945312 182.121094 169.867188 C 182.121094 169.867188 182.136719 169.847656 182.144531 169.835938 C 183.507812 169.492188 185.71875 169.359375 189.492188 170.019531 C 187.683594 172.792969 180.597656 181.746094 176.160156 186.304688 C 173.25 180.039062 174.1875 178.234375 174.605469 177.445312 Z M 173.5625 180.359375 C 173.730469 181.800781 174.316406 183.859375 175.707031 186.8125 L 171.082031 197.894531 C 169.363281 187.425781 172.4375 181.941406 173.5625 180.359375 Z M 171.53125 198.453125 L 173.792969 193.035156 L 174.738281 198.480469 Z M 175.316406 198.125 L 174.253906 192 C 174.25 191.988281 174.238281 191.984375 174.234375 191.972656 L 176.070312 187.574219 C 176.074219 187.585938 176.082031 187.597656 176.085938 187.609375 C 176.140625 187.71875 176.253906 187.785156 176.367188 187.785156 C 176.414062 187.785156 176.464844 187.773438 176.507812 187.753906 C 176.664062 187.675781 176.726562 187.484375 176.648438 187.328125 C 176.578125 187.183594 176.519531 187.054688 176.453125 186.917969 C 177.453125 185.894531 178.597656 184.640625 179.796875 183.269531 L 184.375 190.351562 C 183.398438 191.003906 179.488281 193.722656 175.316406 198.125 Z M 184.820312 189.882812 L 180.226562 182.777344 C 181.195312 181.65625 182.183594 180.476562 183.15625 179.300781 L 189.269531 184.15625 C 187.929688 185.816406 186.410156 187.753906 184.820312 189.882812 Z M 196.183594 227.210938 L 196.589844 227.210938 C 196.816406 227.210938 197.011719 227.125 197.191406 227.011719 C 199.691406 231.199219 203.773438 238.054688 205.636719 241.203125 L 204.753906 241.824219 C 202.6875 238.335938 198.257812 230.765625 196.183594 227.210938 Z M 185.699219 241.390625 L 184.902344 240.921875 C 187.359375 236.839844 192.308594 228.597656 193.230469 227.066406 C 193.390625 227.148438 193.5625 227.210938 193.75 227.210938 L 193.988281 227.210938 C 193.160156 228.628906 188.160156 237.164062 185.699219 241.390625 Z M 194.683594 227.210938 L 195.488281 227.210938 L 195.601562 244.332031 L 194.617188 244.332031 Z M 199.703125 190.867188 C 199.507812 191.109375 199.175781 191.160156 198.910156 191.011719 L 197.207031 189.660156 L 196.113281 188.777344 C 196.171875 188.699219 196.230469 188.621094 196.296875 188.542969 C 196.507812 188.265625 196.722656 187.984375 196.902344 187.773438 L 197.136719 187.964844 L 196.730469 188.472656 C 196.675781 188.542969 196.6875 188.652344 196.757812 188.710938 C 196.789062 188.738281 196.828125 188.75 196.863281 188.75 C 196.914062 188.75 196.960938 188.726562 196.996094 188.6875 L 197.402344 188.179688 L 197.691406 188.414062 L 197.285156 188.921875 C 197.226562 188.992188 197.238281 189.097656 197.3125 189.15625 C 197.34375 189.183594 197.382812 189.195312 197.417969 189.195312 C 197.46875 189.195312 197.515625 189.171875 197.550781 189.132812 L 197.957031 188.625 L 198.246094 188.859375 L 197.839844 189.367188 C 197.785156 189.4375 197.792969 189.542969 197.867188 189.605469 C 197.898438 189.632812 197.933594 189.644531 197.972656 189.644531 C 198.023438 189.644531 198.070312 189.621094 198.105469 189.578125 L 198.507812 189.078125 L 198.796875 189.3125 L 198.390625 189.820312 C 198.332031 189.890625 198.34375 190 198.417969 190.054688 C 198.449219 190.082031 198.488281 190.09375 198.523438 190.09375 C 198.574219 190.09375 198.621094 190.070312 198.65625 190.03125 L 199.0625 189.523438 L 199.351562 189.757812 L 198.945312 190.265625 C 198.890625 190.335938 198.902344 190.445312 198.972656 190.503906 C 199.003906 190.53125 199.042969 190.542969 199.078125 190.542969 C 199.128906 190.542969 199.175781 190.519531 199.210938 190.480469 L 199.617188 189.972656 C 199.882812 190.195312 199.921875 190.59375 199.703125 190.867188 Z M 192.878906 184.914062 C 193.378906 184.289062 194.296875 184.179688 194.925781 184.679688 L 196.253906 185.734375 C 196.382812 185.839844 196.464844 185.996094 196.476562 186.160156 L 196.542969 187.222656 C 196.335938 187.453125 196.066406 187.804688 195.796875 188.152344 L 195.613281 188.390625 L 192.238281 185.714844 Z M 196.066406 189.554688 L 196.480469 189.882812 L 196.15625 190.664062 L 195.613281 190.664062 Z M 193.25 192.214844 L 193.25 191.800781 C 193.25 191.523438 193.476562 191.296875 193.75 191.296875 L 196.589844 191.296875 C 196.867188 191.296875 197.089844 191.523438 197.089844 191.800781 L 197.089844 192.214844 C 197.089844 192.394531 196.992188 192.542969 196.851562 192.632812 L 196.851562 192.027344 C 196.851562 191.929688 196.777344 191.855469 196.683594 191.855469 C 196.589844 191.855469 196.515625 191.929688 196.515625 192.027344 L 196.515625 192.714844 L 196.09375 192.714844 L 196.09375 192.027344 C 196.09375 191.929688 196.019531 191.855469 195.925781 191.855469 C 195.832031 191.855469 195.753906 191.929688 195.753906 192.027344 L 195.753906 192.714844 L 195.335938 192.714844 L 195.335938 192.027344 C 195.335938 191.929688 195.261719 191.855469 195.167969 191.855469 C 195.070312 191.855469 194.996094 191.929688 194.996094 192.027344 L 194.996094 192.714844 L 194.578125 192.714844 L 194.578125 192.027344 C 194.578125 191.929688 194.503906 191.855469 194.410156 191.855469 C 194.3125 191.855469 194.238281 191.929688 194.238281 192.027344 L 194.238281 192.714844 L 193.820312 192.714844 L 193.820312 192.027344 C 193.820312 191.929688 193.746094 191.855469 193.648438 191.855469 C 193.554688 191.855469 193.480469 191.929688 193.480469 192.027344 L 193.480469 192.628906 C 193.347656 192.542969 193.25 192.394531 193.25 192.214844 Z M 194.683594 193.351562 L 195.386719 193.351562 L 195.488281 208.65625 L 194.6875 208.65625 L 194.6875 193.351562 Z M 192.640625 211.167969 C 192.640625 211.386719 192.46875 211.566406 192.25 211.566406 C 192.078125 211.566406 191.9375 211.449219 191.882812 211.296875 L 192.261719 211.296875 C 192.355469 211.296875 192.429688 211.222656 192.429688 211.125 C 192.429688 211.03125 192.355469 210.957031 192.261719 210.957031 L 191.859375 210.957031 L 191.859375 210.761719 L 192.257812 210.761719 C 192.351562 210.761719 192.425781 210.6875 192.425781 210.589844 C 192.425781 210.496094 192.351562 210.421875 192.257812 210.421875 L 191.859375 210.421875 L 191.859375 210.226562 L 192.257812 210.226562 C 192.351562 210.226562 192.425781 210.152344 192.425781 210.054688 C 192.425781 209.960938 192.351562 209.886719 192.257812 209.886719 L 191.859375 209.886719 L 191.859375 209.691406 L 192.257812 209.691406 C 192.351562 209.691406 192.425781 209.617188 192.425781 209.519531 C 192.425781 209.425781 192.351562 209.351562 192.257812 209.351562 L 191.859375 209.351562 L 191.859375 209.15625 L 192.257812 209.15625 C 192.351562 209.15625 192.425781 209.082031 192.425781 208.984375 C 192.425781 208.890625 192.351562 208.816406 192.257812 208.816406 L 191.859375 208.816406 L 191.859375 208.621094 L 192.257812 208.621094 C 192.351562 208.621094 192.425781 208.546875 192.425781 208.453125 C 192.425781 208.355469 192.351562 208.28125 192.257812 208.28125 L 191.867188 208.28125 C 191.890625 208.085938 192.050781 207.933594 192.25 207.933594 C 192.464844 207.933594 192.640625 208.109375 192.640625 208.328125 Z M 193.269531 209.289062 L 197.089844 209.289062 C 197.21875 209.289062 197.320312 209.394531 197.320312 209.523438 L 197.320312 210.175781 C 197.320312 210.304688 197.21875 210.410156 197.089844 210.410156 L 196.9375 210.410156 L 196.9375 209.800781 C 196.9375 209.707031 196.863281 209.632812 196.765625 209.632812 C 196.671875 209.632812 196.597656 209.707031 196.597656 209.800781 L 196.597656 210.410156 L 196.179688 210.410156 L 196.179688 209.800781 C 196.179688 209.707031 196.101562 209.632812 196.007812 209.632812 C 195.914062 209.632812 195.839844 209.707031 195.839844 209.800781 L 195.839844 210.410156 L 195.417969 210.410156 L 195.417969 209.800781 C 195.417969 209.707031 195.34375 209.632812 195.25 209.632812 C 195.15625 209.632812 195.082031 209.707031 195.082031 209.800781 L 195.082031 210.410156 L 194.660156 210.410156 L 194.660156 209.800781 C 194.660156 209.707031 194.585938 209.632812 194.492188 209.632812 C 194.398438 209.632812 194.324219 209.707031 194.324219 209.800781 L 194.324219 210.410156 L 193.902344 210.410156 L 193.902344 209.800781 C 193.902344 209.707031 193.828125 209.632812 193.734375 209.632812 C 193.640625 209.632812 193.5625 209.707031 193.5625 209.800781 L 193.5625 210.410156 L 193.265625 210.410156 L 193.265625 209.289062 Z M 194.683594 211.042969 L 195.488281 211.042969 L 195.488281 224.527344 L 194.683594 224.527344 Z M 193.25 225.664062 C 193.25 225.386719 193.476562 225.160156 193.75 225.160156 L 196.589844 225.160156 C 196.867188 225.160156 197.089844 225.386719 197.089844 225.664062 L 197.089844 226.078125 C 197.089844 226.257812 196.992188 226.40625 196.851562 226.496094 L 196.851562 225.890625 C 196.851562 225.792969 196.777344 225.71875 196.683594 225.71875 C 196.589844 225.71875 196.515625 225.792969 196.515625 225.890625 L 196.515625 226.582031 L 196.09375 226.582031 L 196.09375 225.890625 C 196.09375 225.792969 196.019531 225.71875 195.925781 225.71875 C 195.832031 225.71875 195.753906 225.792969 195.753906 225.890625 L 195.753906 226.582031 L 195.335938 226.582031 L 195.335938 225.890625 C 195.335938 225.792969 195.261719 225.71875 195.167969 225.71875 C 195.070312 225.71875 194.996094 225.792969 194.996094 225.890625 L 194.996094 226.582031 L 194.578125 226.582031 L 194.578125 225.890625 C 194.578125 225.792969 194.503906 225.71875 194.410156 225.71875 C 194.3125 225.71875 194.238281 225.792969 194.238281 225.890625 L 194.238281 226.582031 L 193.820312 226.582031 L 193.820312 225.890625 C 193.820312 225.792969 193.746094 225.71875 193.648438 225.71875 C 193.554688 225.71875 193.480469 225.792969 193.480469 225.890625 L 193.480469 226.496094 C 193.339844 226.40625 193.242188 226.257812 193.242188 226.078125 L 193.242188 225.664062 Z M 184.332031 243.75 C 184.238281 243.929688 184.113281 244.042969 183.984375 244.070312 C 183.820312 244.109375 183.636719 243.984375 183.515625 243.882812 C 183.375 243.761719 183.253906 243.609375 183.515625 243.207031 C 183.570312 243.132812 184.027344 242.371094 184.722656 241.214844 L 185.523438 241.683594 C 184.839844 242.863281 184.382812 243.652344 184.332031 243.75 Z M 189.035156 236.921875 C 190.710938 234.058594 192.585938 230.855469 194.050781 228.351562 L 194.007812 240.070312 Z M 195.113281 247.425781 C 194.910156 247.425781 194.605469 247.347656 194.605469 247.125 L 194.617188 244.671875 L 195.605469 244.671875 L 195.625 247.125 C 195.625 247.347656 195.320312 247.425781 195.113281 247.425781 Z M 196.207031 240.3125 L 196.125 228.359375 C 197.1875 230.179688 199.324219 233.832031 201.277344 237.160156 Z M 206.734375 243.941406 C 206.5 244.089844 206.222656 244.160156 205.847656 243.644531 C 205.789062 243.5625 205.449219 242.996094 204.929688 242.117188 L 205.8125 241.5 C 206.269531 242.28125 206.5625 242.78125 206.609375 242.875 C 207.050781 243.738281 206.832031 243.878906 206.734375 243.941406 Z M 206.734375 243.941406 " fill-opacity="1" fill-rule="nonzero"/></g></svg>