<svg xmlns="http://www.w3.org/2000/svg" xmlns:xlink="http://www.w3.org/1999/xlink" width="500" zoomAndPan="magnify" viewBox="0 0 375 374.999991" height="500" preserveAspectRatio="xMidYMid meet" version="1.0"><defs><clipPath id="347e86c6cc"><path d="M 166 166 L 262.5 166 L 262.5 262.5 L 166 262.5 Z M 166 166 " clip-rule="nonzero"/></clipPath><clipPath id="c6087e0205"><path d="M 112.5 152 L 133 152 L 133 160 L 112.5 160 Z M 112.5 152 " clip-rule="nonzero"/></clipPath><clipPath id="3737b1a71f"><path d="M 152 112.5 L 160 112.5 L 160 133 L 152 133 Z M 152 112.5 " clip-rule="nonzero"/></clipPath></defs><g clip-path="url(#347e86c6cc)"><path fill="#e9eaec" d="M 261.714844 247.601562 L 181.753906 167.640625 C 180.453125 166.339844 178.351562 166.339844 177.050781 167.640625 L 167.644531 177.046875 C 166.34375 178.347656 166.34375 180.449219 167.644531 181.75 L 247.605469 261.710938 C 248.230469 262.335938 249.074219 262.6875 249.957031 262.6875 C 250.84375 262.6875 251.6875 262.335938 252.308594 261.710938 L 261.714844 252.304688 C 262.339844 251.679688 262.691406 250.839844 262.691406 249.953125 C 262.691406 249.070312 262.335938 248.226562 261.714844 247.601562 Z M 249.957031 254.660156 L 174.699219 179.402344 L 179.402344 174.699219 L 254.660156 249.957031 Z M 249.957031 254.660156 " fill-opacity="1" fill-rule="nonzero"/></g><path fill="#e9eaec" d="M 155.882812 168.617188 C 156.734375 168.617188 157.585938 168.289062 158.234375 167.640625 L 167.640625 158.234375 C 168.941406 156.933594 168.941406 154.832031 167.640625 153.53125 L 158.234375 144.125 C 157.609375 143.496094 156.765625 143.148438 155.882812 143.148438 C 155.003906 143.148438 154.152344 143.496094 153.53125 144.125 L 144.125 153.53125 C 143.496094 154.15625 143.148438 155.003906 143.148438 155.882812 C 143.148438 156.765625 143.496094 157.613281 144.125 158.234375 L 153.53125 167.640625 C 154.183594 168.289062 155.03125 168.617188 155.882812 168.617188 Z M 155.882812 151.175781 L 160.585938 155.882812 L 155.882812 160.585938 L 151.175781 155.882812 Z M 155.882812 151.175781 " fill-opacity="1" fill-rule="nonzero"/><path fill="#e9eaec" d="M 134.71875 172.347656 L 125.3125 181.757812 C 124.011719 183.054688 124.011719 185.160156 125.3125 186.457031 C 125.960938 187.109375 126.8125 187.433594 127.664062 187.433594 C 128.515625 187.433594 129.367188 187.109375 130.015625 186.457031 L 139.421875 177.050781 C 140.71875 175.75 140.71875 173.644531 139.421875 172.347656 C 138.125 171.046875 136.019531 171.046875 134.71875 172.347656 Z M 134.71875 172.347656 " fill-opacity="1" fill-rule="nonzero"/><path fill="#e9eaec" d="M 174.699219 140.394531 C 175.550781 140.394531 176.402344 140.070312 177.050781 139.421875 L 186.457031 130.015625 C 187.757812 128.71875 187.757812 126.613281 186.457031 125.3125 C 185.160156 124.011719 183.054688 124.011719 181.757812 125.3125 L 172.347656 134.71875 C 171.046875 136.015625 171.046875 138.121094 172.347656 139.421875 C 172.996094 140.070312 173.847656 140.394531 174.699219 140.394531 Z M 174.699219 140.394531 " fill-opacity="1" fill-rule="nonzero"/><path fill="#e9eaec" d="M 130.015625 125.308594 C 128.714844 124.007812 126.613281 124.007812 125.3125 125.308594 C 124.011719 126.609375 124.011719 128.710938 125.3125 130.011719 L 134.71875 139.417969 C 135.367188 140.066406 136.21875 140.390625 137.070312 140.390625 C 137.921875 140.390625 138.773438 140.066406 139.421875 139.417969 C 140.71875 138.117188 140.71875 136.015625 139.421875 134.714844 Z M 130.015625 125.308594 " fill-opacity="1" fill-rule="nonzero"/><g clip-path="url(#c6087e0205)"><path fill="#e9eaec" d="M 132.601562 155.882812 C 132.601562 154.046875 131.113281 152.558594 129.277344 152.558594 L 115.96875 152.558594 C 114.132812 152.558594 112.644531 154.046875 112.644531 155.882812 C 112.644531 157.71875 114.132812 159.210938 115.96875 159.210938 L 129.277344 159.210938 C 131.117188 159.210938 132.601562 157.71875 132.601562 155.882812 Z M 132.601562 155.882812 " fill-opacity="1" fill-rule="nonzero"/></g><path fill="#e9eaec" d="M 179.164062 155.878906 C 179.164062 157.714844 180.65625 159.207031 182.492188 159.207031 L 195.792969 159.207031 C 197.628906 159.207031 199.117188 157.714844 199.117188 155.878906 C 199.117188 154.042969 197.628906 152.554688 195.792969 152.554688 L 182.492188 152.554688 C 180.65625 152.554688 179.164062 154.042969 179.164062 155.878906 Z M 179.164062 155.878906 " fill-opacity="1" fill-rule="nonzero"/><g clip-path="url(#3737b1a71f)"><path fill="#e9eaec" d="M 155.882812 132.597656 C 157.71875 132.597656 159.210938 131.109375 159.210938 129.273438 L 159.210938 115.96875 C 159.210938 114.132812 157.71875 112.644531 155.882812 112.644531 C 154.046875 112.644531 152.558594 114.132812 152.558594 115.96875 L 152.558594 129.273438 C 152.558594 131.113281 154.046875 132.597656 155.882812 132.597656 Z M 155.882812 132.597656 " fill-opacity="1" fill-rule="nonzero"/></g><path fill="#e9eaec" d="M 155.882812 179.160156 C 154.046875 179.160156 152.558594 180.652344 152.558594 182.488281 L 152.558594 195.792969 C 152.558594 197.628906 154.046875 199.117188 155.882812 199.117188 C 157.71875 199.117188 159.210938 197.628906 159.210938 195.792969 L 159.210938 182.488281 C 159.210938 180.652344 157.722656 179.160156 155.882812 179.160156 Z M 155.882812 179.160156 " fill-opacity="1" fill-rule="nonzero"/></svg>