<svg xmlns="http://www.w3.org/2000/svg" xmlns:xlink="http://www.w3.org/1999/xlink" width="500" zoomAndPan="magnify" viewBox="0 0 375 374.999991" height="500" preserveAspectRatio="xMidYMid meet" version="1.0"><defs><clipPath id="ff232b6f0c"><path d="M 121 60 L 233 60 L 233 315.363281 L 121 315.363281 Z M 121 60 " clip-rule="nonzero"/></clipPath></defs><g clip-path="url(#ff232b6f0c)"><path fill="#ffffff" d="M 231.878906 298.949219 C 231.027344 297.316406 206.25 256.046875 203.648438 251.726562 C 203.816406 251.328125 203.921875 250.886719 203.921875 250.417969 L 203.921875 249.203125 C 203.921875 247.359375 202.425781 245.863281 200.578125 245.863281 L 199.175781 245.863281 L 199.175781 206.21875 L 202.050781 206.21875 C 203.453125 206.21875 204.601562 205.070312 204.601562 203.667969 L 204.601562 201.753906 C 204.601562 200.351562 203.453125 199.203125 202.050781 199.203125 L 199.167969 199.203125 L 198.863281 154.203125 L 200.570312 154.203125 C 202.414062 154.203125 203.910156 152.707031 203.910156 150.863281 L 203.910156 149.648438 C 203.910156 148.042969 202.753906 146.765625 201.242188 146.445312 L 201.753906 145.21875 L 205.984375 148.628906 C 206.085938 148.714844 206.214844 148.746094 206.324219 148.816406 L 224.390625 163.070312 C 224.558594 163.207031 224.761719 163.273438 224.96875 163.273438 C 225.238281 163.273438 225.511719 163.15625 225.699219 162.917969 C 226.011719 162.515625 225.945312 161.929688 225.546875 161.617188 L 209.761719 149.164062 C 210.320312 148.933594 210.839844 148.578125 211.238281 148.074219 C 212.53125 146.46875 212.277344 144.113281 210.679688 142.820312 L 202.289062 136.066406 L 202.09375 132.960938 C 202.023438 131.941406 201.53125 130.988281 200.734375 130.359375 L 196.804688 127.257812 C 194.152344 125.167969 190.269531 125.601562 188.144531 128.246094 L 186.25 130.605469 L 181.546875 126.902344 C 187.898438 119.164062 192.699219 113.742188 194.484375 111.753906 C 195.121094 112.136719 195.726562 112.519531 196.253906 112.882812 C 196.414062 112.996094 196.59375 113.046875 196.78125 113.046875 C 197.078125 113.046875 197.367188 112.902344 197.546875 112.636719 C 197.835938 112.210938 197.730469 111.632812 197.308594 111.34375 C 196.796875 110.996094 196.226562 110.632812 195.625 110.265625 C 203.4375 94.921875 211.621094 82.34375 213.671875 79.257812 C 214.394531 79.375 215.097656 79.503906 215.785156 79.648438 C 215.855469 79.664062 215.914062 79.664062 215.972656 79.664062 C 216.40625 79.664062 216.796875 79.359375 216.882812 78.925781 C 216.984375 78.421875 216.664062 77.929688 216.160156 77.828125 C 215.523438 77.691406 214.859375 77.574219 214.195312 77.464844 C 212.113281 70.890625 211.757812 63.886719 211.699219 62.359375 C 211.84375 62.238281 211.902344 62.195312 211.945312 62.164062 C 212.929688 61.992188 213.535156 61.898438 213.566406 61.890625 C 214.070312 61.804688 214.417969 61.339844 214.339844 60.828125 C 214.257812 60.328125 213.796875 59.960938 213.277344 60.054688 C 213.082031 60.089844 193.53125 63.191406 179.414062 67.910156 C 166.832031 72.117188 158.773438 81.035156 156.769531 83.449219 C 153.886719 84.253906 152.230469 85.351562 151.066406 86.132812 C 147.9375 88.234375 144.433594 93.707031 143.40625 95.390625 L 142.277344 95.332031 C 141.976562 95.289062 141.664062 95.449219 141.476562 95.703125 C 141.289062 95.960938 141.246094 96.28125 141.347656 96.582031 L 141.773438 97.746094 C 140.21875 99.199219 135.21875 104 133.851562 106.578125 C 133.222656 107.757812 132.21875 109.652344 132.21875 113.242188 C 131.566406 113.929688 116.300781 130.4375 123.574219 170.089844 C 123.609375 170.269531 123.71875 170.40625 123.832031 170.523438 C 123.789062 170.644531 123.761719 170.761719 123.761719 170.890625 L 123.8125 172.804688 C 123.832031 173.304688 124.238281 173.703125 124.738281 173.703125 C 124.75 173.703125 124.757812 173.703125 124.765625 173.703125 C 125.273438 173.6875 125.683594 173.261719 125.667969 172.75 L 125.625 171.058594 L 136.207031 171.152344 L 136.546875 173.101562 C 136.625 173.550781 137.023438 173.875 137.464844 173.875 C 137.515625 173.875 137.566406 173.867188 137.625 173.855469 C 138.128906 173.773438 138.46875 173.289062 138.382812 172.785156 L 137.984375 170.523438 C 150.539062 157.136719 162.488281 148.882812 165.414062 146.953125 L 166.1875 148.152344 C 166.367188 148.425781 166.664062 148.578125 166.96875 148.578125 C 167.148438 148.578125 167.316406 148.527344 167.480469 148.425781 C 167.914062 148.144531 168.03125 147.566406 167.75 147.140625 L 166.800781 145.6875 C 171.636719 139.21875 176.269531 133.351562 180.347656 128.347656 L 197.570312 141.9375 C 197.511719 142.007812 197.417969 142.03125 197.382812 142.125 L 195.75 146.070312 C 195.71875 146.15625 195.761719 146.238281 195.75 146.332031 L 192.148438 146.332031 C 190.3125 146.332031 188.808594 147.828125 188.808594 149.671875 L 188.808594 150.890625 C 188.808594 152.734375 190.304688 154.230469 192.148438 154.230469 L 193.058594 154.230469 L 193.058594 199.230469 L 190.726562 199.230469 L 190.726562 198.296875 C 190.726562 196.628906 189.375 195.277344 187.710938 195.277344 C 186.042969 195.277344 184.691406 196.628906 184.691406 198.296875 L 184.691406 206.625 C 184.691406 208.292969 186.042969 209.652344 187.710938 209.652344 C 189.375 209.652344 190.726562 208.300781 190.726562 206.625 L 190.726562 206.242188 L 193.058594 206.242188 L 193.058594 245.890625 L 192.148438 245.890625 C 190.3125 245.890625 188.808594 247.382812 188.808594 249.230469 L 188.808594 250.445312 C 188.808594 251.023438 188.992188 251.53125 189.25 252.007812 C 179.371094 268.355469 160.859375 298.972656 160.3125 299.78125 C 159.191406 301.464844 159.3125 303.078125 160.652344 304.210938 C 161.589844 305 162.421875 305.222656 163.066406 305.222656 C 163.261719 305.222656 163.441406 305.195312 163.59375 305.171875 C 164.546875 304.984375 165.371094 304.3125 165.914062 303.265625 C 166.1875 302.738281 171.152344 294.289062 177.238281 283.945312 L 192.886719 293.789062 L 192.808594 312.34375 C 192.808594 313.933594 194.230469 315.089844 196.175781 315.089844 C 198.125 315.089844 199.542969 313.933594 199.542969 312.34375 L 199.421875 294.441406 C 199.464844 294.425781 199.507812 294.433594 199.542969 294.410156 L 215.351562 284.632812 C 221.066406 294.296875 226.011719 302.636719 226.445312 303.214844 C 227.542969 304.695312 228.664062 305.152344 229.617188 305.152344 C 230.40625 305.152344 231.085938 304.847656 231.5625 304.539062 C 233.976562 302.992188 232.394531 299.949219 231.878906 298.949219 Z M 180.085938 125.738281 L 161.996094 111.464844 C 165.125 107.664062 168.132812 103.925781 170.84375 100.464844 C 173.582031 101.605469 185.382812 106.566406 192.851562 110.785156 C 190.863281 113.003906 186.179688 118.324219 180.085938 125.738281 Z M 194.027344 109.3125 C 186.808594 105.191406 175.597656 100.429688 172.035156 98.945312 C 176.488281 93.222656 179.992188 88.480469 181.5625 85.980469 C 181.828125 86.03125 182.058594 86.066406 182.328125 86.117188 C 182.8125 86.210938 183.324219 85.878906 183.417969 85.378906 C 183.46875 85.105469 183.382812 84.851562 183.222656 84.644531 C 185.5 82.894531 188.542969 80.523438 191.796875 77.992188 C 192.265625 77.972656 202.550781 77.710938 211.648438 78.941406 C 209.003906 82.964844 201.363281 94.90625 194.027344 109.3125 Z M 212.15625 77.140625 C 205.417969 76.207031 197.988281 76.09375 194.203125 76.101562 C 200.339844 71.300781 206.707031 66.277344 209.90625 63.761719 C 210.066406 66.421875 210.574219 71.777344 212.15625 77.140625 Z M 180 69.675781 C 189.402344 66.53125 201.257812 64.109375 208.070312 62.851562 C 201.949219 67.671875 187.292969 79.207031 181.019531 84 C 170.988281 82.179688 164.351562 82.121094 159.871094 82.800781 C 163.179688 79.332031 170.226562 72.941406 180 69.675781 Z M 135.507812 107.445312 C 136.953125 104.722656 143.441406 98.738281 143.5 98.679688 C 143.78125 98.425781 143.875 98.027344 143.746094 97.675781 L 143.59375 97.253906 L 143.875 97.269531 C 144.207031 97.34375 144.554688 97.117188 144.722656 96.808594 C 144.765625 96.742188 148.820312 89.875 152.101562 87.664062 C 153.070312 87.019531 154.421875 86.125 156.660156 85.410156 C 156.777344 85.460938 156.894531 85.53125 157.015625 85.53125 C 157.296875 85.53125 157.566406 85.402344 157.753906 85.164062 C 157.753906 85.164062 157.796875 85.113281 157.824219 85.078125 C 161.851562 84.058594 168.398438 83.675781 179.566406 85.613281 C 174.210938 93.765625 153.242188 120.09375 140.117188 133.488281 C 131.496094 115.078125 134.277344 109.765625 135.507812 107.445312 Z M 132.425781 116.011719 C 132.925781 120.253906 134.660156 126.296875 138.773438 134.984375 L 125.078125 167.566406 C 119.996094 136.785156 129.09375 120.660156 132.425781 116.011719 Z M 126.414062 169.207031 L 133.105469 153.277344 L 135.902344 169.292969 Z M 137.609375 168.246094 L 134.464844 150.234375 C 134.457031 150.199219 134.421875 150.191406 134.414062 150.15625 L 139.84375 137.21875 C 139.863281 137.261719 139.878906 137.289062 139.894531 137.332031 C 140.058594 137.652344 140.390625 137.847656 140.730469 137.847656 C 140.863281 137.847656 141.007812 137.816406 141.144531 137.757812 C 141.605469 137.527344 141.792969 136.964844 141.5625 136.507812 C 141.347656 136.082031 141.179688 135.699219 140.976562 135.289062 C 143.941406 132.289062 147.324219 128.601562 150.871094 124.5625 L 164.417969 145.390625 C 161.527344 147.300781 149.960938 155.300781 137.609375 168.246094 Z M 165.746094 144.011719 L 152.144531 123.117188 C 155.007812 119.828125 157.941406 116.359375 160.816406 112.902344 L 178.914062 127.179688 C 174.941406 132.050781 170.445312 137.746094 165.746094 144.011719 Z M 199.371094 253.75 L 200.578125 253.75 C 201.242188 253.75 201.828125 253.503906 202.355469 253.164062 C 209.75 265.480469 221.839844 285.628906 227.347656 294.894531 L 224.738281 296.710938 C 218.617188 286.460938 205.511719 264.199219 199.371094 253.75 Z M 168.339844 295.4375 L 165.984375 294.058594 C 173.257812 282.066406 187.90625 257.832031 190.632812 253.328125 C 191.101562 253.574219 191.613281 253.75 192.171875 253.75 L 192.878906 253.75 C 190.421875 257.917969 175.621094 283.007812 168.339844 295.4375 Z M 194.933594 253.75 L 197.316406 253.75 L 197.65625 304.089844 L 194.730469 304.089844 Z M 209.792969 146.902344 C 209.214844 147.617188 208.230469 147.769531 207.449219 147.335938 L 202.398438 143.359375 L 199.167969 140.757812 C 199.339844 140.535156 199.515625 140.296875 199.703125 140.066406 C 200.332031 139.261719 200.96875 138.425781 201.496094 137.816406 L 202.195312 138.375 L 200.996094 139.863281 C 200.824219 140.078125 200.859375 140.390625 201.074219 140.570312 C 201.167969 140.644531 201.277344 140.679688 201.386719 140.679688 C 201.53125 140.679688 201.675781 140.613281 201.777344 140.492188 L 202.976562 139.003906 L 203.835938 139.695312 L 202.636719 141.183594 C 202.457031 141.394531 202.492188 141.707031 202.714844 141.878906 C 202.808594 141.957031 202.917969 141.988281 203.027344 141.988281 C 203.171875 141.988281 203.316406 141.921875 203.417969 141.800781 L 204.617188 140.316406 L 205.476562 141.003906 L 204.277344 142.492188 C 204.105469 142.703125 204.140625 143.019531 204.355469 143.195312 C 204.449219 143.273438 204.558594 143.308594 204.667969 143.308594 C 204.8125 143.308594 204.957031 143.238281 205.058594 143.121094 L 206.25 141.640625 L 207.109375 142.335938 L 205.910156 143.824219 C 205.730469 144.039062 205.765625 144.351562 205.984375 144.523438 C 206.078125 144.597656 206.191406 144.632812 206.300781 144.632812 C 206.445312 144.632812 206.589844 144.566406 206.691406 144.445312 L 207.890625 142.957031 L 208.75 143.648438 L 207.550781 145.132812 C 207.378906 145.347656 207.414062 145.660156 207.625 145.839844 C 207.71875 145.917969 207.832031 145.949219 207.941406 145.949219 C 208.085938 145.949219 208.230469 145.882812 208.332031 145.761719 L 209.53125 144.277344 C 210.320312 144.929688 210.441406 146.101562 209.792969 146.902344 Z M 189.597656 129.398438 C 191.078125 127.5625 193.789062 127.242188 195.648438 128.710938 L 199.578125 131.8125 C 199.96875 132.121094 200.207031 132.578125 200.238281 133.074219 L 200.433594 136.191406 C 199.824219 136.871094 199.023438 137.902344 198.234375 138.921875 L 197.679688 139.625 L 187.703125 131.753906 Z M 199.023438 143.050781 L 200.25 144.011719 L 199.296875 146.308594 L 197.679688 146.308594 Z M 190.695312 150.863281 L 190.695312 149.648438 C 190.695312 148.832031 191.355469 148.167969 192.171875 148.167969 L 200.578125 148.167969 C 201.394531 148.167969 202.058594 148.832031 202.058594 149.648438 L 202.058594 150.863281 C 202.058594 151.390625 201.769531 151.832031 201.351562 152.097656 L 201.351562 150.3125 C 201.351562 150.03125 201.132812 149.808594 200.851562 149.808594 C 200.570312 149.808594 200.351562 150.03125 200.351562 150.3125 L 200.351562 152.34375 L 199.109375 152.34375 L 199.109375 150.3125 C 199.109375 150.03125 198.886719 149.808594 198.609375 149.808594 C 198.328125 149.808594 198.105469 150.03125 198.105469 150.3125 L 198.105469 152.34375 L 196.863281 152.34375 L 196.863281 150.3125 C 196.863281 150.03125 196.644531 149.808594 196.363281 149.808594 C 196.082031 149.808594 195.863281 150.03125 195.863281 150.3125 L 195.863281 152.34375 L 194.621094 152.34375 L 194.621094 150.3125 C 194.621094 150.03125 194.398438 149.808594 194.121094 149.808594 C 193.839844 149.808594 193.617188 150.03125 193.617188 150.3125 L 193.617188 152.34375 L 192.375 152.34375 L 192.375 150.3125 C 192.375 150.03125 192.15625 149.808594 191.875 149.808594 C 191.59375 149.808594 191.375 150.03125 191.375 150.3125 L 191.375 152.085938 C 190.984375 151.832031 190.695312 151.390625 190.695312 150.863281 Z M 194.933594 154.203125 L 197.007812 154.203125 L 197.316406 199.203125 L 194.945312 199.203125 L 194.945312 154.203125 Z M 188.890625 206.589844 C 188.890625 207.230469 188.375 207.757812 187.734375 207.757812 C 187.226562 207.757812 186.808594 207.417969 186.648438 206.964844 L 187.761719 206.964844 C 188.042969 206.964844 188.261719 206.746094 188.261719 206.464844 C 188.261719 206.183594 188.042969 205.960938 187.761719 205.960938 L 186.570312 205.960938 L 186.570312 205.394531 L 187.753906 205.394531 C 188.03125 205.394531 188.253906 205.171875 188.253906 204.890625 C 188.253906 204.609375 188.03125 204.390625 187.753906 204.390625 L 186.570312 204.390625 L 186.570312 203.820312 L 187.753906 203.820312 C 188.03125 203.820312 188.253906 203.597656 188.253906 203.320312 C 188.253906 203.039062 188.03125 202.816406 187.753906 202.816406 L 186.570312 202.816406 L 186.570312 202.25 L 187.753906 202.25 C 188.03125 202.25 188.253906 202.027344 188.253906 201.746094 C 188.253906 201.464844 188.03125 201.246094 187.753906 201.246094 L 186.570312 201.246094 L 186.570312 200.675781 L 187.753906 200.675781 C 188.03125 200.675781 188.253906 200.453125 188.253906 200.175781 C 188.253906 199.894531 188.03125 199.671875 187.753906 199.671875 L 186.570312 199.671875 L 186.570312 199.101562 L 187.753906 199.101562 C 188.03125 199.101562 188.253906 198.882812 188.253906 198.601562 C 188.253906 198.320312 188.03125 198.101562 187.753906 198.101562 L 186.597656 198.101562 C 186.664062 197.53125 187.140625 197.078125 187.726562 197.078125 C 188.363281 197.078125 188.882812 197.597656 188.882812 198.234375 L 188.882812 206.589844 Z M 190.753906 201.066406 L 202.050781 201.066406 C 202.433594 201.066406 202.738281 201.371094 202.738281 201.753906 L 202.738281 203.667969 C 202.738281 204.050781 202.433594 204.355469 202.050781 204.355469 L 201.601562 204.355469 L 201.601562 202.570312 C 201.601562 202.289062 201.378906 202.070312 201.097656 202.070312 C 200.816406 202.070312 200.597656 202.289062 200.597656 202.570312 L 200.597656 204.355469 L 199.355469 204.355469 L 199.355469 202.570312 C 199.355469 202.289062 199.132812 202.070312 198.855469 202.070312 C 198.574219 202.070312 198.351562 202.289062 198.351562 202.570312 L 198.351562 204.355469 L 197.113281 204.355469 L 197.113281 202.570312 C 197.113281 202.289062 196.890625 202.070312 196.609375 202.070312 C 196.328125 202.070312 196.109375 202.289062 196.109375 202.570312 L 196.109375 204.355469 L 194.867188 204.355469 L 194.867188 202.570312 C 194.867188 202.289062 194.644531 202.070312 194.367188 202.070312 C 194.085938 202.070312 193.863281 202.289062 193.863281 202.570312 L 193.863281 204.355469 L 192.625 204.355469 L 192.625 202.570312 C 192.625 202.289062 192.402344 202.070312 192.121094 202.070312 C 191.839844 202.070312 191.621094 202.289062 191.621094 202.570312 L 191.621094 204.355469 L 190.734375 204.355469 L 190.734375 201.066406 Z M 194.933594 206.21875 L 197.316406 206.21875 L 197.316406 245.863281 L 194.933594 245.863281 Z M 190.695312 249.203125 C 190.695312 248.386719 191.355469 247.726562 192.171875 247.726562 L 200.578125 247.726562 C 201.394531 247.726562 202.058594 248.386719 202.058594 249.203125 L 202.058594 250.417969 C 202.058594 250.945312 201.769531 251.386719 201.351562 251.652344 L 201.351562 249.867188 C 201.351562 249.585938 201.132812 249.367188 200.851562 249.367188 C 200.570312 249.367188 200.351562 249.585938 200.351562 249.867188 L 200.351562 251.898438 L 199.109375 251.898438 L 199.109375 249.867188 C 199.109375 249.585938 198.886719 249.367188 198.609375 249.367188 C 198.328125 249.367188 198.105469 249.585938 198.105469 249.867188 L 198.105469 251.898438 L 196.863281 251.898438 L 196.863281 249.867188 C 196.863281 249.585938 196.644531 249.367188 196.363281 249.367188 C 196.082031 249.367188 195.863281 249.585938 195.863281 249.867188 L 195.863281 251.898438 L 194.621094 251.898438 L 194.621094 249.867188 C 194.621094 249.585938 194.398438 249.367188 194.121094 249.367188 C 193.839844 249.367188 193.617188 249.585938 193.617188 249.867188 L 193.617188 251.898438 L 192.375 251.898438 L 192.375 249.867188 C 192.375 249.585938 192.15625 249.367188 191.875 249.367188 C 191.59375 249.367188 191.375 249.585938 191.375 249.867188 L 191.375 251.652344 C 190.957031 251.386719 190.667969 250.945312 190.667969 250.429688 L 190.667969 249.203125 Z M 164.292969 302.375 C 164.019531 302.902344 163.644531 303.242188 163.261719 303.316406 C 162.777344 303.425781 162.234375 303.070312 161.878906 302.765625 C 161.46875 302.414062 161.105469 301.957031 161.886719 300.785156 C 162.039062 300.5625 163.398438 298.320312 165.457031 294.925781 L 167.820312 296.304688 C 165.796875 299.773438 164.445312 302.085938 164.292969 302.375 Z M 178.214844 282.304688 C 183.171875 273.890625 188.722656 264.46875 193.066406 257.101562 L 192.929688 291.5625 Z M 196.210938 313.1875 C 195.605469 313.1875 194.707031 312.949219 194.707031 312.300781 L 194.730469 305.085938 L 197.664062 305.085938 L 197.714844 312.292969 C 197.714844 312.957031 196.8125 313.1875 196.210938 313.1875 Z M 199.441406 292.265625 L 199.203125 257.132812 C 202.347656 262.480469 208.664062 273.21875 214.445312 283 Z M 230.601562 302.933594 C 229.90625 303.375 229.089844 303.582031 227.976562 302.066406 C 227.796875 301.828125 226.792969 300.164062 225.257812 297.578125 L 227.867188 295.761719 C 229.226562 298.054688 230.09375 299.527344 230.230469 299.796875 C 231.539062 302.339844 230.882812 302.757812 230.601562 302.933594 Z M 230.601562 302.933594 " fill-opacity="1" fill-rule="nonzero"/></g></svg>