<svg xmlns="http://www.w3.org/2000/svg" xmlns:xlink="http://www.w3.org/1999/xlink" width="500" zoomAndPan="magnify" viewBox="0 0 375 374.999991" height="500" preserveAspectRatio="xMidYMid meet" version="1.0"><defs><clipPath id="5275031d99"><path d="M 111.320312 121 L 259.070312 121 L 259.070312 244 L 111.320312 244 Z M 111.320312 121 " clip-rule="nonzero"/></clipPath><clipPath id="4c38d15414"><path d="M 181 95.957031 L 189 95.957031 L 189 112 L 181 112 Z M 181 95.957031 " clip-rule="nonzero"/></clipPath><clipPath id="c842cc17cb"><path d="M 181 254 L 189 254 L 189 269.957031 L 181 269.957031 Z M 181 254 " clip-rule="nonzero"/></clipPath></defs><path fill="#ffffff" d="M 239.820312 166.109375 L 226.707031 166.109375 C 223.496094 166.109375 220.890625 163.503906 220.890625 160.292969 L 220.890625 156.011719 C 220.890625 152.804688 223.496094 150.195312 226.707031 150.195312 L 239.820312 150.195312 C 243.03125 150.195312 245.636719 152.804688 245.636719 156.011719 L 245.636719 160.292969 C 245.648438 163.503906 243.03125 166.109375 239.820312 166.109375 Z M 227.289062 159.71875 L 239.253906 159.71875 L 239.253906 156.585938 L 227.289062 156.585938 Z M 227.289062 159.71875 " fill-opacity="1" fill-rule="nonzero"/><g clip-path="url(#5275031d99)"><path fill="#ffffff" d="M 245.320312 140.917969 L 214.390625 140.917969 L 210.421875 127.46875 C 209.386719 123.988281 205.847656 121.546875 201.808594 121.546875 L 168.84375 121.546875 C 164.804688 121.546875 161.257812 123.976562 160.230469 127.46875 L 156.261719 140.910156 L 148.039062 140.910156 L 148.039062 135.941406 C 148.039062 133.003906 145.652344 130.628906 142.722656 130.628906 L 129.824219 130.628906 C 126.886719 130.628906 124.507812 133.015625 124.507812 135.941406 L 124.507812 140.988281 C 117.347656 141.441406 111.644531 147.339844 111.644531 154.605469 L 111.644531 230.304688 C 111.644531 237.855469 117.78125 243.992188 125.332031 243.992188 L 245.320312 243.992188 C 252.871094 243.992188 259.007812 237.855469 259.007812 230.304688 L 259.007812 154.605469 C 259.007812 147.054688 252.871094 140.917969 245.320312 140.917969 Z M 166.367188 129.28125 C 166.5625 128.621094 167.542969 127.9375 168.851562 127.9375 L 201.808594 127.9375 C 203.117188 127.9375 204.097656 128.621094 204.292969 129.273438 L 207.722656 140.910156 L 162.9375 140.910156 Z M 130.894531 137.027344 L 141.644531 137.027344 L 141.644531 140.917969 L 130.894531 140.917969 Z M 125.332031 147.3125 L 245.320312 147.3125 C 249.34375 147.3125 252.613281 150.582031 252.613281 154.605469 L 252.613281 168.859375 L 215.980469 168.859375 C 208.960938 159.222656 197.617188 152.925781 184.804688 152.925781 C 171.992188 152.925781 160.65625 159.222656 153.625 168.859375 L 118.035156 168.859375 L 118.035156 154.605469 C 118.035156 150.582031 121.308594 147.3125 125.332031 147.3125 Z M 184.8125 159.320312 C 202.566406 159.320312 217.015625 173.769531 217.015625 191.523438 C 217.015625 209.277344 202.566406 223.726562 184.8125 223.726562 C 167.058594 223.726562 152.609375 209.277344 152.609375 191.523438 C 152.609375 173.769531 167.058594 159.320312 184.8125 159.320312 Z M 245.320312 237.597656 L 125.332031 237.597656 C 121.308594 237.597656 118.035156 234.328125 118.035156 230.304688 L 118.035156 175.253906 L 149.859375 175.253906 C 147.542969 180.203125 146.21875 185.703125 146.21875 191.523438 C 146.21875 212.804688 163.53125 230.117188 184.8125 230.117188 C 206.097656 230.117188 223.410156 212.804688 223.410156 191.523438 C 223.410156 185.703125 222.082031 180.203125 219.765625 175.253906 L 252.613281 175.253906 L 252.613281 230.304688 C 252.613281 234.328125 249.34375 237.597656 245.320312 237.597656 Z M 245.320312 237.597656 " fill-opacity="1" fill-rule="nonzero"/></g><path fill="#ffffff" d="M 194.210938 130.757812 L 176.441406 130.757812 C 174.671875 130.757812 173.238281 132.191406 173.238281 133.960938 C 173.238281 135.730469 174.671875 137.160156 176.441406 137.160156 L 194.222656 137.160156 C 195.988281 137.160156 197.421875 135.730469 197.421875 133.960938 C 197.421875 132.191406 195.980469 130.757812 194.210938 130.757812 Z M 194.210938 130.757812 " fill-opacity="1" fill-rule="nonzero"/><path fill="#ffffff" d="M 184.8125 220.941406 C 168.585938 220.941406 155.394531 207.738281 155.394531 191.523438 C 155.394531 175.296875 168.597656 162.105469 184.8125 162.105469 C 201.039062 162.105469 214.230469 175.304688 214.230469 191.523438 C 214.230469 207.738281 201.03125 220.941406 184.8125 220.941406 Z M 184.8125 168.496094 C 172.117188 168.496094 161.789062 178.824219 161.789062 191.523438 C 161.789062 204.21875 172.117188 214.546875 184.8125 214.546875 C 197.511719 214.546875 207.839844 204.21875 207.839844 191.523438 C 207.839844 178.824219 197.511719 168.496094 184.8125 168.496094 Z M 184.8125 168.496094 " fill-opacity="1" fill-rule="nonzero"/><path fill="#ffffff" d="M 166.457031 194.714844 C 164.6875 194.714844 163.257812 193.28125 163.257812 191.515625 C 163.257812 179.628906 172.921875 169.964844 184.804688 169.964844 C 186.574219 169.964844 188.003906 171.398438 188.003906 173.167969 C 188.003906 174.933594 186.574219 176.367188 184.804688 176.367188 C 176.449219 176.367188 169.648438 183.167969 169.648438 191.523438 C 169.648438 193.28125 168.226562 194.714844 166.457031 194.714844 Z M 166.457031 194.714844 " fill-opacity="1" fill-rule="nonzero"/><path fill="#ffffff" d="M 130.558594 232.878906 C 125.640625 232.878906 121.644531 228.882812 121.644531 223.964844 C 121.644531 219.046875 125.640625 215.050781 130.558594 215.050781 C 135.472656 215.050781 139.46875 219.046875 139.46875 223.964844 C 139.46875 228.882812 135.472656 232.878906 130.558594 232.878906 Z M 130.558594 221.445312 C 129.167969 221.445312 128.039062 222.578125 128.039062 223.964844 C 128.039062 225.351562 129.167969 226.484375 130.558594 226.484375 C 131.945312 226.484375 133.078125 225.351562 133.078125 223.964844 C 133.078125 222.578125 131.945312 221.445312 130.558594 221.445312 Z M 130.558594 221.445312 " fill-opacity="1" fill-rule="nonzero"/><g clip-path="url(#4c38d15414)"><path fill="#ffffff" d="M 184.972656 111.234375 C 183.203125 111.234375 181.769531 109.804688 181.769531 108.035156 L 181.769531 99.15625 C 181.769531 97.390625 183.203125 95.957031 184.972656 95.957031 C 186.742188 95.957031 188.171875 97.390625 188.171875 99.15625 L 188.171875 108.042969 C 188.164062 109.804688 186.730469 111.234375 184.972656 111.234375 Z M 184.972656 111.234375 " fill-opacity="1" fill-rule="nonzero"/></g><path fill="#ffffff" d="M 169.285156 116.109375 C 168.464844 116.109375 167.652344 115.796875 167.023438 115.171875 L 160.746094 108.894531 C 159.496094 107.644531 159.496094 105.621094 160.746094 104.375 C 161.992188 103.128906 164.015625 103.128906 165.261719 104.375 L 171.539062 110.652344 C 172.789062 111.898438 172.789062 113.925781 171.539062 115.171875 C 170.921875 115.796875 170.101562 116.109375 169.285156 116.109375 Z M 169.285156 116.109375 " fill-opacity="1" fill-rule="nonzero"/><path fill="#ffffff" d="M 201.367188 116.109375 C 200.542969 116.109375 199.730469 115.796875 199.101562 115.171875 C 197.855469 113.925781 197.855469 111.898438 199.101562 110.652344 L 205.378906 104.375 C 206.625 103.128906 208.652344 103.128906 209.898438 104.375 C 211.144531 105.621094 211.144531 107.644531 209.898438 108.894531 L 203.621094 115.171875 C 203 115.796875 202.1875 116.109375 201.367188 116.109375 Z M 201.367188 116.109375 " fill-opacity="1" fill-rule="nonzero"/><g clip-path="url(#c842cc17cb)"><path fill="#ffffff" d="M 184.972656 269.582031 C 183.203125 269.582031 181.769531 268.148438 181.769531 266.378906 L 181.769531 257.503906 C 181.769531 255.734375 183.203125 254.300781 184.972656 254.300781 C 186.742188 254.300781 188.171875 255.734375 188.171875 257.503906 L 188.171875 266.390625 C 188.164062 268.15625 186.730469 269.582031 184.972656 269.582031 Z M 184.972656 269.582031 " fill-opacity="1" fill-rule="nonzero"/></g><path fill="#ffffff" d="M 163 262.109375 C 162.175781 262.109375 161.363281 261.800781 160.734375 261.171875 C 159.488281 259.925781 159.488281 257.902344 160.734375 256.65625 L 167.015625 250.375 C 168.261719 249.128906 170.285156 249.128906 171.53125 250.375 C 172.777344 251.625 172.777344 253.648438 171.53125 254.894531 L 165.253906 261.171875 C 164.636719 261.792969 163.820312 262.109375 163 262.109375 Z M 163 262.109375 " fill-opacity="1" fill-rule="nonzero"/><path fill="#ffffff" d="M 207.652344 262.109375 C 206.832031 262.109375 206.015625 261.800781 205.390625 261.171875 L 199.109375 254.894531 C 197.863281 253.648438 197.863281 251.625 199.109375 250.375 C 200.359375 249.128906 202.382812 249.128906 203.628906 250.375 L 209.90625 256.65625 C 211.152344 257.902344 211.152344 259.925781 209.90625 261.171875 C 209.289062 261.792969 208.464844 262.109375 207.652344 262.109375 Z M 207.652344 262.109375 " fill-opacity="1" fill-rule="nonzero"/></svg>